<svg xmlns="http://www.w3.org/2000/svg" version="1.1" xmlns:xlink="http://www.w3.org/1999/xlink" xmlns:svgjs="http://svgjs.dev/svgjs" width="1920" height="1080" preserveAspectRatio="none" viewBox="0 0 1920 1080"><g mask="url(&quot;#SvgjsMask1037&quot;)" fill="none"><rect width="1920" height="1080" x="0" y="0" fill="rgba(51, 51, 51, 1)"></rect><path d="M812.26 181.45a103.34 103.34 0 1 0-190.41 80.37z" fill="#037b0b"></path><path d="M375.53 258.65L375.7 258.65L375.7 258.82L375.53 258.82z" fill="#037b0b"></path><path d="M1636.36 524.72a103.97 103.97 0 1 0-129.65 162.58z" fill="#037b0b"></path><path d="M1042.31 548.13 a77.78 77.78 0 1 0 155.56 0 a77.78 77.78 0 1 0 -155.56 0z" stroke="#037b0b"></path><path d="M554.72 764.6L625.08 764.6L625.08 834.96L554.72 834.96z" stroke="#e73635"></path><path d="M25.61 521.35L42.2 521.35L42.2 537.94L25.61 537.94z" stroke="#037b0b"></path><path d="M1402.86 954.36L1460.73 954.36L1460.73 1009.17L1402.86 1009.17z" fill="#d3b714"></path><path d="M95.99 1022.26 a14.17 14.17 0 1 0 28.34 0 a14.17 14.17 0 1 0 -28.34 0z" fill="#e73635"></path><path d="M-8.22 717.36 a59.66 59.66 0 1 0 119.32 0 a59.66 59.66 0 1 0 -119.32 0z" fill="#d3b714"></path><path d="M831.58 1107.97a86.98 86.98 0 1 0-111.79-133.28z" fill="#e73635"></path><path d="M1427.49 260.41a89.64 89.64 0 1 0 143.37 107.64z" stroke="#037b0b"></path><path d="M1743.13 964.18L1781.17 964.18L1781.17 1029.29L1743.13 1029.29z" stroke="#037b0b"></path><path d="M1623.45 445.46L1656.71 445.46L1656.71 524.27L1623.45 524.27z" stroke="#037b0b"></path><path d="M1748.12 476.04 a0.05 0.05 0 1 0 0.1 0 a0.05 0.05 0 1 0 -0.1 0z" fill="#037b0b"></path><path d="M563.93 130.05 a93.93 93.93 0 1 0 187.86 0 a93.93 93.93 0 1 0 -187.86 0z" stroke="#e73635"></path><path d="M727.48 526.21 a38.38 38.38 0 1 0 76.76 0 a38.38 38.38 0 1 0 -76.76 0z" fill="#d3b714"></path><path d="M940.67 279.59a45.09 45.09 0 1 0 63.09 64.43z" fill="#e73635"></path><path d="M1695.13 84.17L1801.33 84.17L1801.33 190.17L1695.13 190.17z" fill="#d3b714"></path><path d="M1847.09 155.83L1861.83 155.83L1861.83 170.57L1847.09 170.57z" fill="#037b0b"></path><path d="M1220.55 1062.86a66.96 66.96 0 1 0 5.54-133.81z" fill="#d3b714"></path><path d="M1552.33 833.33L1567.13 833.33L1567.13 848.13L1552.33 848.13z" fill="#037b0b"></path><path d="M1395.74 920.51L1451.37 920.51L1451.37 948.87L1395.74 948.87z" stroke="#d3b714"></path><path d="M1203.4 364.86L1302.19 364.86L1302.19 443.12L1203.4 443.12z" fill="#e73635"></path></g><defs><mask id="SvgjsMask1037"><rect width="1920" height="1080" fill="#ffffff"></rect></mask></defs></svg>