<?xml version="1.0" standalone="no"?>
<!DOCTYPE svg PUBLIC "-//W3C//DTD SVG 20010904//EN"
 "http://www.w3.org/TR/2001/REC-SVG-20010904/DTD/svg10.dtd">
<svg version="1.0" xmlns="http://www.w3.org/2000/svg"
 width="256.000000pt" height="256.000000pt" viewBox="0 0 256.000000 256.000000"
 preserveAspectRatio="xMidYMid meet">
<metadata>
Created by potrace 1.14, written by Peter Selinger 2001-2017
</metadata>
<g transform="translate(0.000000,256.000000) scale(0.100000,-0.100000)"
fill="#000000" stroke="none">
<path d="M190 2551 c-75 -23 -136 -78 -169 -151 -20 -44 -21 -60 -21 -1120 0
-1060 1 -1076 21 -1120 25 -55 71 -105 124 -133 l40 -22 1095 0 1095 0 40 22
c53 28 99 78 124 133 20 44 21 60 21 1120 0 1060 -1 1076 -21 1120 -25 55 -71
105 -124 133 l-40 22 -1080 2 c-594 1 -1091 -2 -1105 -6z m1040 -1276 l0 -785
-110 0 -110 0 0 350 0 350 -220 0 -220 0 0 -350 0 -350 -105 0 -105 0 0 778
c0 428 3 782 7 785 3 4 199 7 435 7 l428 0 0 -785z m960 685 l0 -100 -95 0
-95 0 0 -585 0 -585 100 0 100 0 0 -100 0 -100 -295 0 -295 0 0 100 0 100 90
0 90 0 0 585 0 585 -100 0 -100 0 0 93 c0 52 3 97 7 100 3 4 138 7 300 7 l293
0 0 -100z"/>
<path d="M570 1625 l0 -235 220 0 220 0 0 235 0 235 -220 0 -220 0 0 -235z"/>
</g>
</svg>
