<svg xmlns="http://www.w3.org/2000/svg" version="1.1" xmlns:xlink="http://www.w3.org/1999/xlink" xmlns:svgjs="http://svgjs.dev/svgjs" width="1920" height="1080" preserveAspectRatio="none" viewBox="0 0 1920 1080"><g mask="url(&quot;#SvgjsMask6383&quot;)" fill="none"><rect width="1920" height="1080" x="0" y="0" fill="rgba(51, 51, 51, 1)"></rect><g mask="url(&quot;#SvgjsMask6385&quot;)"><path d="M579.5 560.5L598.5 560.5L617.5 560.5L636.5 560.5M104.5 541.5L123.5 560.5M351.5 522.5L370.5 522.5L389.5 522.5M47.5 541.5L66.5 560.5L85.5 560.5L104.5 560.5M389.5 541.5L408.5 541.5L427.5 541.5M541.5 560.5L560.5 541.5L579.5 541.5L598.5 541.5L617.5 541.5L636.5 541.5L655.5 541.5L674.5 522.5L693.5 522.5L712.5 522.5L731.5 522.5L750.5 522.5M28.5 541.5L47.5 560.5M636.5 598.5L655.5 579.5M199.5 522.5L218.5 541.5M484.5 522.5L503.5 522.5L522.5 522.5L541.5 522.5L560.5 522.5L579.5 522.5L598.5 522.5L617.5 522.5L636.5 522.5L655.5 522.5L674.5 503.5L693.5 503.5L712.5 503.5M693.5 598.5L712.5 579.5L731.5 579.5L750.5 579.5L769.5 579.5L788.5 579.5L807.5 579.5M-9.5 541.5L9.5 541.5L28.5 541.5L47.5 541.5L66.5 541.5L85.5 541.5L104.5 541.5L123.5 541.5L142.5 541.5L161.5 541.5L180.5 541.5L199.5 522.5L218.5 522.5L237.5 522.5L256.5 522.5L275.5 522.5L294.5 522.5L313.5 522.5L332.5 522.5L351.5 522.5L370.5 541.5L389.5 541.5L408.5 522.5L427.5 522.5L446.5 522.5L465.5 522.5L484.5 522.5L503.5 541.5L522.5 541.5L541.5 560.5L560.5 560.5L579.5 560.5L598.5 579.5L617.5 598.5L636.5 598.5L655.5 598.5L674.5 598.5L693.5 598.5L712.5 598.5L731.5 598.5L750.5 598.5L769.5 598.5L788.5 598.5L807.5 598.5" stroke="url(&quot;#SvgjsRadialGradient6384&quot;)" stroke-width="3.17"></path><path d="M802.75 598.5 a4.75 4.75 0 1 0 9.5 0 a4.75 4.75 0 1 0 -9.5 0zM631.75 560.5 a4.75 4.75 0 1 0 9.5 0 a4.75 4.75 0 1 0 -9.5 0zM118.75 560.5 a4.75 4.75 0 1 0 9.5 0 a4.75 4.75 0 1 0 -9.5 0zM384.75 522.5 a4.75 4.75 0 1 0 9.5 0 a4.75 4.75 0 1 0 -9.5 0zM99.75 560.5 a4.75 4.75 0 1 0 9.5 0 a4.75 4.75 0 1 0 -9.5 0zM422.75 541.5 a4.75 4.75 0 1 0 9.5 0 a4.75 4.75 0 1 0 -9.5 0zM745.75 522.5 a4.75 4.75 0 1 0 9.5 0 a4.75 4.75 0 1 0 -9.5 0zM42.75 560.5 a4.75 4.75 0 1 0 9.5 0 a4.75 4.75 0 1 0 -9.5 0zM650.75 579.5 a4.75 4.75 0 1 0 9.5 0 a4.75 4.75 0 1 0 -9.5 0zM213.75 541.5 a4.75 4.75 0 1 0 9.5 0 a4.75 4.75 0 1 0 -9.5 0zM707.75 503.5 a4.75 4.75 0 1 0 9.5 0 a4.75 4.75 0 1 0 -9.5 0zM802.75 579.5 a4.75 4.75 0 1 0 9.5 0 a4.75 4.75 0 1 0 -9.5 0z" fill="url(&quot;#SvgjsRadialGradient6384&quot;)"></path><path d="M275.5 503.5L294.5 484.5L313.5 484.5L332.5 484.5L351.5 484.5M142.5 522.5L161.5 522.5L180.5 522.5M-9.5 522.5L9.5 522.5L28.5 522.5L47.5 522.5L66.5 522.5L85.5 522.5L104.5 522.5L123.5 522.5L142.5 522.5L161.5 503.5L180.5 503.5L199.5 503.5L218.5 503.5L237.5 503.5L256.5 503.5L275.5 503.5L294.5 503.5L313.5 503.5L332.5 503.5L351.5 503.5L370.5 503.5" stroke="url(&quot;#SvgjsRadialGradient6384&quot;)" stroke-width="3.17"></path><path d="M365.75 503.5 a4.75 4.75 0 1 0 9.5 0 a4.75 4.75 0 1 0 -9.5 0zM346.75 484.5 a4.75 4.75 0 1 0 9.5 0 a4.75 4.75 0 1 0 -9.5 0zM175.75 522.5 a4.75 4.75 0 1 0 9.5 0 a4.75 4.75 0 1 0 -9.5 0z" fill="url(&quot;#SvgjsRadialGradient6384&quot;)"></path><path d="M959.5 617.5L978.5 636.5L997.5 636.5M769.5 636.5L788.5 617.5L807.5 617.5M712.5 617.5L731.5 617.5L750.5 617.5M978.5 617.5L997.5 598.5M940.5 617.5L959.5 636.5M541.5 579.5L560.5 579.5L579.5 579.5M1016.5 617.5L1035.5 598.5L1054.5 598.5L1073.5 617.5L1092.5 636.5M180.5 560.5L199.5 579.5L218.5 579.5M465.5 541.5L484.5 560.5M845.5 636.5L864.5 617.5L883.5 617.5L902.5 617.5L921.5 617.5M256.5 541.5L275.5 560.5L294.5 560.5L313.5 560.5M826.5 636.5L845.5 617.5L864.5 598.5L883.5 598.5M921.5 636.5L940.5 636.5M332.5 541.5L351.5 560.5M-9.5 560.5L9.5 560.5L28.5 579.5L47.5 579.5L66.5 579.5L85.5 579.5L104.5 579.5L123.5 579.5L142.5 560.5L161.5 560.5L180.5 560.5L199.5 560.5L218.5 560.5L237.5 541.5L256.5 541.5L275.5 541.5L294.5 541.5L313.5 541.5L332.5 541.5L351.5 541.5L370.5 560.5L389.5 560.5L408.5 560.5L427.5 560.5L446.5 541.5L465.5 541.5L484.5 541.5L503.5 560.5L522.5 560.5L541.5 579.5L560.5 598.5L579.5 598.5L598.5 598.5L617.5 617.5L636.5 617.5L655.5 617.5L674.5 617.5L693.5 617.5L712.5 617.5L731.5 636.5L750.5 636.5L769.5 636.5L788.5 636.5L807.5 636.5L826.5 636.5L845.5 636.5L864.5 636.5L883.5 636.5L902.5 636.5L921.5 636.5L940.5 617.5L959.5 617.5L978.5 617.5L997.5 617.5L1016.5 617.5L1035.5 617.5" stroke="url(&quot;#SvgjsRadialGradient6384&quot;)" stroke-width="3.17"></path><path d="M1030.75 617.5 a4.75 4.75 0 1 0 9.5 0 a4.75 4.75 0 1 0 -9.5 0zM992.75 636.5 a4.75 4.75 0 1 0 9.5 0 a4.75 4.75 0 1 0 -9.5 0zM802.75 617.5 a4.75 4.75 0 1 0 9.5 0 a4.75 4.75 0 1 0 -9.5 0zM745.75 617.5 a4.75 4.75 0 1 0 9.5 0 a4.75 4.75 0 1 0 -9.5 0zM992.75 598.5 a4.75 4.75 0 1 0 9.5 0 a4.75 4.75 0 1 0 -9.5 0zM954.75 636.5 a4.75 4.75 0 1 0 9.5 0 a4.75 4.75 0 1 0 -9.5 0zM574.75 579.5 a4.75 4.75 0 1 0 9.5 0 a4.75 4.75 0 1 0 -9.5 0zM1087.75 636.5 a4.75 4.75 0 1 0 9.5 0 a4.75 4.75 0 1 0 -9.5 0zM213.75 579.5 a4.75 4.75 0 1 0 9.5 0 a4.75 4.75 0 1 0 -9.5 0zM479.75 560.5 a4.75 4.75 0 1 0 9.5 0 a4.75 4.75 0 1 0 -9.5 0zM916.75 617.5 a4.75 4.75 0 1 0 9.5 0 a4.75 4.75 0 1 0 -9.5 0zM308.75 560.5 a4.75 4.75 0 1 0 9.5 0 a4.75 4.75 0 1 0 -9.5 0zM878.75 598.5 a4.75 4.75 0 1 0 9.5 0 a4.75 4.75 0 1 0 -9.5 0zM935.75 636.5 a4.75 4.75 0 1 0 9.5 0 a4.75 4.75 0 1 0 -9.5 0zM346.75 560.5 a4.75 4.75 0 1 0 9.5 0 a4.75 4.75 0 1 0 -9.5 0z" fill="url(&quot;#SvgjsRadialGradient6384&quot;)"></path><path d="M294.5 446.5L313.5 465.5M351.5 408.5L370.5 408.5M313.5 446.5L332.5 446.5L351.5 446.5M332.5 427.5L351.5 427.5L370.5 427.5L389.5 427.5L408.5 427.5L427.5 427.5L446.5 427.5L465.5 427.5L484.5 427.5M275.5 465.5L294.5 465.5M-9.5 503.5L9.5 503.5L28.5 503.5L47.5 503.5L66.5 503.5L85.5 503.5L104.5 503.5L123.5 503.5L142.5 503.5L161.5 484.5L180.5 484.5L199.5 484.5L218.5 484.5L237.5 484.5L256.5 484.5L275.5 465.5L294.5 446.5L313.5 446.5L332.5 427.5L351.5 408.5L370.5 389.5" stroke="url(&quot;#SvgjsRadialGradient6384&quot;)" stroke-width="3.17"></path><path d="M365.75 389.5 a4.75 4.75 0 1 0 9.5 0 a4.75 4.75 0 1 0 -9.5 0zM308.75 465.5 a4.75 4.75 0 1 0 9.5 0 a4.75 4.75 0 1 0 -9.5 0zM365.75 408.5 a4.75 4.75 0 1 0 9.5 0 a4.75 4.75 0 1 0 -9.5 0zM346.75 446.5 a4.75 4.75 0 1 0 9.5 0 a4.75 4.75 0 1 0 -9.5 0zM479.75 427.5 a4.75 4.75 0 1 0 9.5 0 a4.75 4.75 0 1 0 -9.5 0zM289.75 465.5 a4.75 4.75 0 1 0 9.5 0 a4.75 4.75 0 1 0 -9.5 0z" fill="url(&quot;#SvgjsRadialGradient6384&quot;)"></path><path d="M142.5 598.5L161.5 579.5L180.5 579.5M1016.5 655.5L1035.5 636.5L1054.5 636.5L1073.5 636.5M655.5 636.5L674.5 655.5M902.5 655.5L921.5 674.5L940.5 693.5L959.5 693.5M978.5 655.5L997.5 674.5L1016.5 674.5M864.5 655.5L883.5 674.5M845.5 655.5L864.5 674.5L883.5 693.5L902.5 693.5M1035.5 655.5L1054.5 674.5M1073.5 655.5L1092.5 674.5M731.5 655.5L750.5 674.5L769.5 674.5L788.5 693.5M788.5 655.5L807.5 674.5L826.5 674.5L845.5 674.5L864.5 693.5L883.5 712.5L902.5 712.5L921.5 712.5L940.5 712.5L959.5 712.5M313.5 579.5L332.5 598.5L351.5 598.5L370.5 598.5M446.5 579.5L465.5 560.5M294.5 579.5L313.5 598.5M-9.5 579.5L9.5 579.5L28.5 598.5L47.5 598.5L66.5 598.5L85.5 598.5L104.5 598.5L123.5 598.5L142.5 598.5L161.5 598.5L180.5 598.5L199.5 598.5L218.5 598.5L237.5 579.5L256.5 579.5L275.5 579.5L294.5 579.5L313.5 579.5L332.5 579.5L351.5 579.5L370.5 579.5L389.5 579.5L408.5 579.5L427.5 579.5L446.5 579.5L465.5 579.5L484.5 579.5L503.5 579.5L522.5 579.5L541.5 598.5L560.5 617.5L579.5 617.5L598.5 617.5L617.5 636.5L636.5 636.5L655.5 636.5L674.5 636.5L693.5 636.5L712.5 636.5L731.5 655.5L750.5 655.5L769.5 655.5L788.5 655.5L807.5 655.5L826.5 655.5L845.5 655.5L864.5 655.5L883.5 655.5L902.5 655.5L921.5 655.5L940.5 655.5L959.5 655.5L978.5 655.5L997.5 655.5L1016.5 655.5L1035.5 655.5L1054.5 655.5L1073.5 655.5L1092.5 655.5" stroke="url(&quot;#SvgjsRadialGradient6384&quot;)" stroke-width="3.17"></path><path d="M1087.75 655.5 a4.75 4.75 0 1 0 9.5 0 a4.75 4.75 0 1 0 -9.5 0zM175.75 579.5 a4.75 4.75 0 1 0 9.5 0 a4.75 4.75 0 1 0 -9.5 0zM1068.75 636.5 a4.75 4.75 0 1 0 9.5 0 a4.75 4.75 0 1 0 -9.5 0zM669.75 655.5 a4.75 4.75 0 1 0 9.5 0 a4.75 4.75 0 1 0 -9.5 0zM954.75 693.5 a4.75 4.75 0 1 0 9.5 0 a4.75 4.75 0 1 0 -9.5 0zM1011.75 674.5 a4.75 4.75 0 1 0 9.5 0 a4.75 4.75 0 1 0 -9.5 0zM878.75 674.5 a4.75 4.75 0 1 0 9.5 0 a4.75 4.75 0 1 0 -9.5 0zM897.75 693.5 a4.75 4.75 0 1 0 9.5 0 a4.75 4.75 0 1 0 -9.5 0zM1049.75 674.5 a4.75 4.75 0 1 0 9.5 0 a4.75 4.75 0 1 0 -9.5 0zM1087.75 674.5 a4.75 4.75 0 1 0 9.5 0 a4.75 4.75 0 1 0 -9.5 0zM783.75 693.5 a4.75 4.75 0 1 0 9.5 0 a4.75 4.75 0 1 0 -9.5 0zM954.75 712.5 a4.75 4.75 0 1 0 9.5 0 a4.75 4.75 0 1 0 -9.5 0zM365.75 598.5 a4.75 4.75 0 1 0 9.5 0 a4.75 4.75 0 1 0 -9.5 0zM460.75 560.5 a4.75 4.75 0 1 0 9.5 0 a4.75 4.75 0 1 0 -9.5 0zM308.75 598.5 a4.75 4.75 0 1 0 9.5 0 a4.75 4.75 0 1 0 -9.5 0z" fill="url(&quot;#SvgjsRadialGradient6384&quot;)"></path><path d="M484.5 370.5L503.5 389.5L522.5 389.5L541.5 389.5L560.5 389.5L579.5 389.5L598.5 389.5L617.5 389.5L636.5 389.5L655.5 389.5L674.5 389.5L693.5 389.5L712.5 389.5L731.5 389.5L750.5 389.5L769.5 389.5L788.5 389.5L807.5 389.5L826.5 389.5M826.5 332.5L845.5 332.5L864.5 332.5M465.5 370.5L484.5 389.5M674.5 370.5L693.5 370.5L712.5 370.5L731.5 370.5L750.5 370.5L769.5 370.5L788.5 370.5L807.5 370.5L826.5 370.5L845.5 370.5L864.5 370.5M427.5 370.5L446.5 389.5L465.5 389.5L484.5 408.5L503.5 408.5L522.5 408.5L541.5 408.5L560.5 408.5L579.5 408.5L598.5 408.5L617.5 408.5L636.5 408.5L655.5 408.5L674.5 408.5L693.5 408.5L712.5 408.5M807.5 332.5L826.5 313.5M788.5 351.5L807.5 351.5L826.5 351.5L845.5 351.5M389.5 370.5L408.5 389.5L427.5 389.5L446.5 408.5L465.5 408.5M636.5 370.5L655.5 351.5L674.5 351.5M446.5 370.5L465.5 351.5M-9.5 484.5L9.5 484.5L28.5 484.5L47.5 484.5L66.5 484.5L85.5 484.5L104.5 484.5L123.5 484.5L142.5 484.5L161.5 465.5L180.5 465.5L199.5 465.5L218.5 465.5L237.5 465.5L256.5 465.5L275.5 446.5L294.5 427.5L313.5 427.5L332.5 408.5L351.5 389.5L370.5 370.5L389.5 370.5L408.5 370.5L427.5 370.5L446.5 370.5L465.5 370.5L484.5 370.5L503.5 370.5L522.5 370.5L541.5 370.5L560.5 370.5L579.5 370.5L598.5 370.5L617.5 370.5L636.5 370.5L655.5 370.5L674.5 370.5L693.5 351.5L712.5 351.5L731.5 351.5L750.5 351.5L769.5 351.5L788.5 351.5L807.5 332.5L826.5 332.5L845.5 313.5L864.5 313.5" stroke="url(&quot;#SvgjsRadialGradient6384&quot;)" stroke-width="3.17"></path><path d="M859.75 313.5 a4.75 4.75 0 1 0 9.5 0 a4.75 4.75 0 1 0 -9.5 0zM821.75 389.5 a4.75 4.75 0 1 0 9.5 0 a4.75 4.75 0 1 0 -9.5 0zM859.75 332.5 a4.75 4.75 0 1 0 9.5 0 a4.75 4.75 0 1 0 -9.5 0zM479.75 389.5 a4.75 4.75 0 1 0 9.5 0 a4.75 4.75 0 1 0 -9.5 0zM859.75 370.5 a4.75 4.75 0 1 0 9.5 0 a4.75 4.75 0 1 0 -9.5 0zM707.75 408.5 a4.75 4.75 0 1 0 9.5 0 a4.75 4.75 0 1 0 -9.5 0zM821.75 313.5 a4.75 4.75 0 1 0 9.5 0 a4.75 4.75 0 1 0 -9.5 0zM840.75 351.5 a4.75 4.75 0 1 0 9.5 0 a4.75 4.75 0 1 0 -9.5 0zM460.75 408.5 a4.75 4.75 0 1 0 9.5 0 a4.75 4.75 0 1 0 -9.5 0zM669.75 351.5 a4.75 4.75 0 1 0 9.5 0 a4.75 4.75 0 1 0 -9.5 0zM460.75 351.5 a4.75 4.75 0 1 0 9.5 0 a4.75 4.75 0 1 0 -9.5 0z" fill="url(&quot;#SvgjsRadialGradient6384&quot;)"></path><path d="M598.5 655.5L617.5 655.5L636.5 655.5L655.5 655.5L674.5 674.5L693.5 674.5M465.5 598.5L484.5 617.5L503.5 617.5L522.5 617.5L541.5 636.5L560.5 655.5M579.5 655.5L598.5 636.5M446.5 598.5L465.5 617.5L484.5 636.5L503.5 636.5L522.5 655.5M332.5 617.5L351.5 636.5L370.5 636.5L389.5 636.5L408.5 636.5L427.5 617.5L446.5 617.5L465.5 636.5L484.5 655.5L503.5 655.5M617.5 674.5L636.5 674.5L655.5 674.5M199.5 617.5L218.5 636.5L237.5 655.5L256.5 655.5L275.5 655.5L294.5 674.5L313.5 674.5L332.5 674.5L351.5 674.5L370.5 674.5L389.5 674.5L408.5 674.5L427.5 674.5L446.5 674.5L465.5 655.5M256.5 617.5L275.5 636.5L294.5 636.5L313.5 636.5L332.5 636.5L351.5 655.5L370.5 655.5L389.5 655.5L408.5 655.5L427.5 655.5L446.5 655.5M712.5 693.5L731.5 674.5M237.5 617.5L256.5 598.5L275.5 598.5L294.5 598.5M-9.5 598.5L9.5 598.5L28.5 617.5L47.5 617.5L66.5 617.5L85.5 617.5L104.5 617.5L123.5 617.5L142.5 617.5L161.5 617.5L180.5 617.5L199.5 617.5L218.5 617.5L237.5 617.5L256.5 617.5L275.5 617.5L294.5 617.5L313.5 617.5L332.5 617.5L351.5 617.5L370.5 617.5L389.5 598.5L408.5 598.5L427.5 598.5L446.5 598.5L465.5 598.5L484.5 598.5L503.5 598.5L522.5 598.5L541.5 617.5L560.5 636.5L579.5 655.5L598.5 655.5L617.5 674.5L636.5 693.5L655.5 693.5L674.5 693.5L693.5 693.5L712.5 693.5L731.5 693.5L750.5 693.5" stroke="url(&quot;#SvgjsRadialGradient6384&quot;)" stroke-width="3.17"></path><path d="M745.75 693.5 a4.75 4.75 0 1 0 9.5 0 a4.75 4.75 0 1 0 -9.5 0zM688.75 674.5 a4.75 4.75 0 1 0 9.5 0 a4.75 4.75 0 1 0 -9.5 0zM555.75 655.5 a4.75 4.75 0 1 0 9.5 0 a4.75 4.75 0 1 0 -9.5 0zM593.75 636.5 a4.75 4.75 0 1 0 9.5 0 a4.75 4.75 0 1 0 -9.5 0zM517.75 655.5 a4.75 4.75 0 1 0 9.5 0 a4.75 4.75 0 1 0 -9.5 0zM498.75 655.5 a4.75 4.75 0 1 0 9.5 0 a4.75 4.75 0 1 0 -9.5 0zM650.75 674.5 a4.75 4.75 0 1 0 9.5 0 a4.75 4.75 0 1 0 -9.5 0zM460.75 655.5 a4.75 4.75 0 1 0 9.5 0 a4.75 4.75 0 1 0 -9.5 0zM441.75 655.5 a4.75 4.75 0 1 0 9.5 0 a4.75 4.75 0 1 0 -9.5 0zM726.75 674.5 a4.75 4.75 0 1 0 9.5 0 a4.75 4.75 0 1 0 -9.5 0zM289.75 598.5 a4.75 4.75 0 1 0 9.5 0 a4.75 4.75 0 1 0 -9.5 0z" fill="url(&quot;#SvgjsRadialGradient6384&quot;)"></path><path d="M503.5 351.5L522.5 332.5M427.5 351.5L446.5 351.5M465.5 332.5L484.5 332.5M-9.5 465.5L9.5 465.5L28.5 465.5L47.5 465.5L66.5 465.5L85.5 465.5L104.5 465.5L123.5 465.5L142.5 465.5L161.5 446.5L180.5 446.5L199.5 446.5L218.5 446.5L237.5 446.5L256.5 446.5L275.5 427.5L294.5 408.5L313.5 408.5L332.5 389.5L351.5 370.5L370.5 351.5L389.5 351.5L408.5 351.5L427.5 351.5L446.5 332.5L465.5 332.5L484.5 351.5L503.5 351.5L522.5 351.5L541.5 351.5L560.5 351.5L579.5 351.5L598.5 351.5L617.5 351.5" stroke="url(&quot;#SvgjsRadialGradient6384&quot;)" stroke-width="3.17"></path><path d="M612.75 351.5 a4.75 4.75 0 1 0 9.5 0 a4.75 4.75 0 1 0 -9.5 0zM517.75 332.5 a4.75 4.75 0 1 0 9.5 0 a4.75 4.75 0 1 0 -9.5 0zM441.75 351.5 a4.75 4.75 0 1 0 9.5 0 a4.75 4.75 0 1 0 -9.5 0zM479.75 332.5 a4.75 4.75 0 1 0 9.5 0 a4.75 4.75 0 1 0 -9.5 0z" fill="url(&quot;#SvgjsRadialGradient6384&quot;)"></path><path d="M104.5 636.5L123.5 655.5L142.5 655.5L161.5 655.5L180.5 655.5L199.5 655.5M66.5 636.5L85.5 655.5L104.5 655.5M-9.5 617.5L9.5 617.5L28.5 636.5L47.5 636.5L66.5 636.5L85.5 636.5L104.5 636.5L123.5 636.5L142.5 636.5L161.5 636.5" stroke="url(&quot;#SvgjsRadialGradient6384&quot;)" stroke-width="3.17"></path><path d="M156.75 636.5 a4.75 4.75 0 1 0 9.5 0 a4.75 4.75 0 1 0 -9.5 0zM194.75 655.5 a4.75 4.75 0 1 0 9.5 0 a4.75 4.75 0 1 0 -9.5 0zM99.75 655.5 a4.75 4.75 0 1 0 9.5 0 a4.75 4.75 0 1 0 -9.5 0z" fill="url(&quot;#SvgjsRadialGradient6384&quot;)"></path><path d="M674.5 332.5L693.5 313.5L712.5 313.5L731.5 313.5L750.5 313.5L769.5 313.5L788.5 313.5L807.5 313.5M579.5 332.5L598.5 313.5M655.5 332.5L674.5 313.5M560.5 332.5L579.5 313.5M541.5 332.5L560.5 313.5M636.5 332.5L655.5 313.5M522.5 313.5L541.5 313.5M617.5 332.5L636.5 313.5M-9.5 446.5L9.5 446.5L28.5 446.5L47.5 446.5L66.5 446.5L85.5 446.5L104.5 446.5L123.5 446.5L142.5 446.5L161.5 427.5L180.5 427.5L199.5 427.5L218.5 427.5L237.5 427.5L256.5 427.5L275.5 408.5L294.5 389.5L313.5 389.5L332.5 370.5L351.5 351.5L370.5 332.5L389.5 332.5L408.5 332.5L427.5 332.5L446.5 313.5L465.5 313.5L484.5 313.5L503.5 313.5L522.5 313.5L541.5 332.5L560.5 332.5L579.5 332.5L598.5 332.5L617.5 332.5L636.5 332.5L655.5 332.5L674.5 332.5L693.5 332.5L712.5 332.5L731.5 332.5L750.5 332.5L769.5 332.5" stroke="url(&quot;#SvgjsRadialGradient6384&quot;)" stroke-width="3.17"></path><path d="M764.75 332.5 a4.75 4.75 0 1 0 9.5 0 a4.75 4.75 0 1 0 -9.5 0zM802.75 313.5 a4.75 4.75 0 1 0 9.5 0 a4.75 4.75 0 1 0 -9.5 0zM593.75 313.5 a4.75 4.75 0 1 0 9.5 0 a4.75 4.75 0 1 0 -9.5 0zM669.75 313.5 a4.75 4.75 0 1 0 9.5 0 a4.75 4.75 0 1 0 -9.5 0zM574.75 313.5 a4.75 4.75 0 1 0 9.5 0 a4.75 4.75 0 1 0 -9.5 0zM555.75 313.5 a4.75 4.75 0 1 0 9.5 0 a4.75 4.75 0 1 0 -9.5 0zM650.75 313.5 a4.75 4.75 0 1 0 9.5 0 a4.75 4.75 0 1 0 -9.5 0zM536.75 313.5 a4.75 4.75 0 1 0 9.5 0 a4.75 4.75 0 1 0 -9.5 0zM631.75 313.5 a4.75 4.75 0 1 0 9.5 0 a4.75 4.75 0 1 0 -9.5 0z" fill="url(&quot;#SvgjsRadialGradient6384&quot;)"></path><path d="M788.5 731.5L807.5 712.5L826.5 712.5M940.5 750.5L959.5 769.5L978.5 769.5L997.5 769.5L1016.5 769.5M845.5 731.5L864.5 750.5M313.5 693.5L332.5 712.5L351.5 712.5L370.5 712.5L389.5 712.5L408.5 712.5M750.5 712.5L769.5 731.5L788.5 750.5L807.5 750.5L826.5 750.5L845.5 750.5L864.5 769.5L883.5 769.5L902.5 769.5M712.5 712.5L731.5 731.5L750.5 731.5L769.5 750.5L788.5 769.5L807.5 769.5L826.5 769.5M465.5 674.5L484.5 693.5L503.5 693.5L522.5 693.5M560.5 674.5L579.5 693.5L598.5 693.5M256.5 693.5L275.5 674.5M674.5 712.5L693.5 731.5M921.5 750.5L940.5 769.5M446.5 693.5L465.5 693.5L484.5 712.5L503.5 712.5M883.5 750.5L902.5 731.5L921.5 731.5L940.5 731.5L959.5 731.5M-9.5 636.5L9.5 636.5L28.5 655.5L47.5 655.5L66.5 674.5L85.5 674.5L104.5 674.5L123.5 674.5L142.5 693.5L161.5 693.5L180.5 693.5L199.5 693.5L218.5 693.5L237.5 693.5L256.5 693.5L275.5 693.5L294.5 693.5L313.5 693.5L332.5 693.5L351.5 693.5L370.5 693.5L389.5 693.5L408.5 693.5L427.5 693.5L446.5 693.5L465.5 674.5L484.5 674.5L503.5 674.5L522.5 674.5L541.5 674.5L560.5 674.5L579.5 674.5L598.5 674.5L617.5 693.5L636.5 712.5L655.5 712.5L674.5 712.5L693.5 712.5L712.5 712.5L731.5 712.5L750.5 712.5L769.5 712.5L788.5 731.5L807.5 731.5L826.5 731.5L845.5 731.5L864.5 731.5L883.5 750.5L902.5 750.5L921.5 750.5L940.5 750.5L959.5 750.5L978.5 750.5" stroke="url(&quot;#SvgjsRadialGradient6384&quot;)" stroke-width="3.17"></path><path d="M973.75 750.5 a4.75 4.75 0 1 0 9.5 0 a4.75 4.75 0 1 0 -9.5 0zM821.75 712.5 a4.75 4.75 0 1 0 9.5 0 a4.75 4.75 0 1 0 -9.5 0zM1011.75 769.5 a4.75 4.75 0 1 0 9.5 0 a4.75 4.75 0 1 0 -9.5 0zM859.75 750.5 a4.75 4.75 0 1 0 9.5 0 a4.75 4.75 0 1 0 -9.5 0zM403.75 712.5 a4.75 4.75 0 1 0 9.5 0 a4.75 4.75 0 1 0 -9.5 0zM897.75 769.5 a4.75 4.75 0 1 0 9.5 0 a4.75 4.75 0 1 0 -9.5 0zM821.75 769.5 a4.75 4.75 0 1 0 9.5 0 a4.75 4.75 0 1 0 -9.5 0zM517.75 693.5 a4.75 4.75 0 1 0 9.5 0 a4.75 4.75 0 1 0 -9.5 0zM593.75 693.5 a4.75 4.75 0 1 0 9.5 0 a4.75 4.75 0 1 0 -9.5 0zM270.75 674.5 a4.75 4.75 0 1 0 9.5 0 a4.75 4.75 0 1 0 -9.5 0zM688.75 731.5 a4.75 4.75 0 1 0 9.5 0 a4.75 4.75 0 1 0 -9.5 0zM935.75 769.5 a4.75 4.75 0 1 0 9.5 0 a4.75 4.75 0 1 0 -9.5 0zM498.75 712.5 a4.75 4.75 0 1 0 9.5 0 a4.75 4.75 0 1 0 -9.5 0zM954.75 731.5 a4.75 4.75 0 1 0 9.5 0 a4.75 4.75 0 1 0 -9.5 0z" fill="url(&quot;#SvgjsRadialGradient6384&quot;)"></path><path d="M921.5 294.5L940.5 313.5L959.5 313.5M883.5 294.5L902.5 313.5L921.5 313.5L940.5 332.5L959.5 332.5L978.5 313.5L997.5 313.5L1016.5 313.5L1035.5 313.5M-9.5 427.5L9.5 427.5L28.5 427.5L47.5 427.5L66.5 427.5L85.5 427.5L104.5 427.5L123.5 427.5L142.5 427.5L161.5 408.5L180.5 408.5L199.5 408.5L218.5 408.5L237.5 408.5L256.5 408.5L275.5 389.5L294.5 370.5L313.5 370.5L332.5 351.5L351.5 332.5L370.5 313.5L389.5 313.5L408.5 313.5L427.5 313.5L446.5 294.5L465.5 294.5L484.5 294.5L503.5 294.5L522.5 294.5L541.5 294.5L560.5 294.5L579.5 294.5L598.5 294.5L617.5 294.5L636.5 294.5L655.5 294.5L674.5 294.5L693.5 294.5L712.5 294.5L731.5 294.5L750.5 294.5L769.5 294.5L788.5 294.5L807.5 294.5L826.5 294.5L845.5 294.5L864.5 294.5L883.5 294.5L902.5 294.5L921.5 294.5L940.5 294.5" stroke="url(&quot;#SvgjsRadialGradient6384&quot;)" stroke-width="3.17"></path><path d="M935.75 294.5 a4.75 4.75 0 1 0 9.5 0 a4.75 4.75 0 1 0 -9.5 0zM954.75 313.5 a4.75 4.75 0 1 0 9.5 0 a4.75 4.75 0 1 0 -9.5 0zM1030.75 313.5 a4.75 4.75 0 1 0 9.5 0 a4.75 4.75 0 1 0 -9.5 0z" fill="url(&quot;#SvgjsRadialGradient6384&quot;)"></path><path d="M66.5 693.5L85.5 693.5L104.5 693.5L123.5 693.5M161.5 712.5L180.5 731.5M142.5 712.5L161.5 731.5M-9.5 655.5L9.5 655.5L28.5 674.5L47.5 674.5L66.5 693.5L85.5 712.5L104.5 712.5L123.5 712.5L142.5 712.5L161.5 712.5L180.5 712.5" stroke="url(&quot;#SvgjsRadialGradient6384&quot;)" stroke-width="3.17"></path><path d="M175.75 712.5 a4.75 4.75 0 1 0 9.5 0 a4.75 4.75 0 1 0 -9.5 0zM118.75 693.5 a4.75 4.75 0 1 0 9.5 0 a4.75 4.75 0 1 0 -9.5 0zM175.75 731.5 a4.75 4.75 0 1 0 9.5 0 a4.75 4.75 0 1 0 -9.5 0zM156.75 731.5 a4.75 4.75 0 1 0 9.5 0 a4.75 4.75 0 1 0 -9.5 0z" fill="url(&quot;#SvgjsRadialGradient6384&quot;)"></path><path d="M237.5 389.5L256.5 370.5M218.5 389.5L237.5 370.5M902.5 275.5L921.5 256.5M883.5 275.5L902.5 256.5L921.5 237.5L940.5 237.5L959.5 237.5L978.5 237.5L997.5 237.5L1016.5 237.5L1035.5 218.5L1054.5 218.5L1073.5 218.5L1092.5 218.5M807.5 275.5L826.5 256.5L845.5 256.5L864.5 256.5L883.5 256.5L902.5 237.5M940.5 275.5L959.5 256.5L978.5 256.5M788.5 275.5L807.5 256.5M294.5 351.5L313.5 351.5M978.5 275.5L997.5 294.5M959.5 275.5L978.5 294.5M1016.5 256.5L1035.5 256.5L1054.5 256.5L1073.5 256.5L1092.5 256.5M997.5 275.5L1016.5 275.5L1035.5 275.5L1054.5 275.5L1073.5 275.5L1092.5 294.5M769.5 275.5L788.5 256.5M-9.5 408.5L9.5 408.5L28.5 408.5L47.5 408.5L66.5 408.5L85.5 408.5L104.5 408.5L123.5 408.5L142.5 408.5L161.5 389.5L180.5 389.5L199.5 389.5L218.5 389.5L237.5 389.5L256.5 389.5L275.5 370.5L294.5 351.5L313.5 332.5L332.5 332.5L351.5 313.5L370.5 294.5L389.5 294.5L408.5 294.5L427.5 294.5L446.5 275.5L465.5 275.5L484.5 275.5L503.5 275.5L522.5 275.5L541.5 275.5L560.5 275.5L579.5 275.5L598.5 275.5L617.5 275.5L636.5 275.5L655.5 275.5L674.5 275.5L693.5 275.5L712.5 275.5L731.5 275.5L750.5 275.5L769.5 275.5L788.5 275.5L807.5 275.5L826.5 275.5L845.5 275.5L864.5 275.5L883.5 275.5L902.5 275.5L921.5 275.5L940.5 275.5L959.5 275.5L978.5 275.5L997.5 275.5L1016.5 256.5L1035.5 237.5L1054.5 237.5" stroke="url(&quot;#SvgjsRadialGradient6384&quot;)" stroke-width="3.17"></path><path d="M1049.75 237.5 a4.75 4.75 0 1 0 9.5 0 a4.75 4.75 0 1 0 -9.5 0zM251.75 370.5 a4.75 4.75 0 1 0 9.5 0 a4.75 4.75 0 1 0 -9.5 0zM232.75 370.5 a4.75 4.75 0 1 0 9.5 0 a4.75 4.75 0 1 0 -9.5 0zM916.75 256.5 a4.75 4.75 0 1 0 9.5 0 a4.75 4.75 0 1 0 -9.5 0zM1087.75 218.5 a4.75 4.75 0 1 0 9.5 0 a4.75 4.75 0 1 0 -9.5 0zM897.75 237.5 a4.75 4.75 0 1 0 9.5 0 a4.75 4.75 0 1 0 -9.5 0zM973.75 256.5 a4.75 4.75 0 1 0 9.5 0 a4.75 4.75 0 1 0 -9.5 0zM802.75 256.5 a4.75 4.75 0 1 0 9.5 0 a4.75 4.75 0 1 0 -9.5 0zM308.75 351.5 a4.75 4.75 0 1 0 9.5 0 a4.75 4.75 0 1 0 -9.5 0zM992.75 294.5 a4.75 4.75 0 1 0 9.5 0 a4.75 4.75 0 1 0 -9.5 0zM973.75 294.5 a4.75 4.75 0 1 0 9.5 0 a4.75 4.75 0 1 0 -9.5 0zM1087.75 256.5 a4.75 4.75 0 1 0 9.5 0 a4.75 4.75 0 1 0 -9.5 0zM1087.75 294.5 a4.75 4.75 0 1 0 9.5 0 a4.75 4.75 0 1 0 -9.5 0zM783.75 256.5 a4.75 4.75 0 1 0 9.5 0 a4.75 4.75 0 1 0 -9.5 0z" fill="url(&quot;#SvgjsRadialGradient6384&quot;)"></path><path d="M807.5 788.5L826.5 807.5L845.5 807.5L864.5 807.5L883.5 807.5L902.5 807.5L921.5 807.5M1016.5 788.5L1035.5 807.5L1054.5 807.5L1073.5 807.5L1092.5 807.5M218.5 769.5L237.5 750.5L256.5 750.5L275.5 750.5L294.5 750.5L313.5 750.5L332.5 750.5L351.5 750.5L370.5 750.5M750.5 788.5L769.5 769.5M199.5 769.5L218.5 750.5L237.5 731.5L256.5 731.5M712.5 788.5L731.5 769.5L750.5 769.5M560.5 769.5L579.5 750.5L598.5 750.5L617.5 750.5L636.5 750.5L655.5 750.5M769.5 788.5L788.5 807.5L807.5 807.5L826.5 826.5L845.5 845.5L864.5 845.5L883.5 845.5L902.5 845.5L921.5 845.5M484.5 769.5L503.5 750.5L522.5 750.5M541.5 769.5L560.5 750.5L579.5 731.5L598.5 731.5M408.5 769.5L427.5 788.5L446.5 788.5M636.5 788.5L655.5 769.5L674.5 769.5L693.5 769.5L712.5 769.5L731.5 750.5L750.5 750.5M598.5 788.5L617.5 807.5L636.5 807.5L655.5 807.5L674.5 807.5L693.5 807.5L712.5 807.5L731.5 807.5L750.5 807.5L769.5 807.5L788.5 826.5M617.5 788.5L636.5 769.5M-9.5 674.5L9.5 674.5L28.5 693.5L47.5 693.5L66.5 712.5L85.5 731.5L104.5 731.5L123.5 731.5L142.5 750.5L161.5 750.5L180.5 769.5L199.5 769.5L218.5 769.5L237.5 769.5L256.5 769.5L275.5 769.5L294.5 769.5L313.5 769.5L332.5 769.5L351.5 769.5L370.5 769.5L389.5 769.5L408.5 769.5L427.5 769.5L446.5 769.5L465.5 769.5L484.5 769.5L503.5 769.5L522.5 769.5L541.5 769.5L560.5 769.5L579.5 769.5L598.5 788.5L617.5 788.5L636.5 788.5L655.5 788.5L674.5 788.5L693.5 788.5L712.5 788.5L731.5 788.5L750.5 788.5L769.5 788.5L788.5 788.5L807.5 788.5L826.5 788.5L845.5 788.5L864.5 788.5L883.5 788.5L902.5 788.5L921.5 788.5L940.5 788.5L959.5 788.5L978.5 788.5L997.5 788.5L1016.5 788.5L1035.5 788.5" stroke="url(&quot;#SvgjsRadialGradient6384&quot;)" stroke-width="3.17"></path><path d="M1030.75 788.5 a4.75 4.75 0 1 0 9.5 0 a4.75 4.75 0 1 0 -9.5 0zM916.75 807.5 a4.75 4.75 0 1 0 9.5 0 a4.75 4.75 0 1 0 -9.5 0zM1087.75 807.5 a4.75 4.75 0 1 0 9.5 0 a4.75 4.75 0 1 0 -9.5 0zM365.75 750.5 a4.75 4.75 0 1 0 9.5 0 a4.75 4.75 0 1 0 -9.5 0zM764.75 769.5 a4.75 4.75 0 1 0 9.5 0 a4.75 4.75 0 1 0 -9.5 0zM251.75 731.5 a4.75 4.75 0 1 0 9.5 0 a4.75 4.75 0 1 0 -9.5 0zM745.75 769.5 a4.75 4.75 0 1 0 9.5 0 a4.75 4.75 0 1 0 -9.5 0zM650.75 750.5 a4.75 4.75 0 1 0 9.5 0 a4.75 4.75 0 1 0 -9.5 0zM916.75 845.5 a4.75 4.75 0 1 0 9.5 0 a4.75 4.75 0 1 0 -9.5 0zM517.75 750.5 a4.75 4.75 0 1 0 9.5 0 a4.75 4.75 0 1 0 -9.5 0zM593.75 731.5 a4.75 4.75 0 1 0 9.5 0 a4.75 4.75 0 1 0 -9.5 0zM441.75 788.5 a4.75 4.75 0 1 0 9.5 0 a4.75 4.75 0 1 0 -9.5 0zM745.75 750.5 a4.75 4.75 0 1 0 9.5 0 a4.75 4.75 0 1 0 -9.5 0zM783.75 826.5 a4.75 4.75 0 1 0 9.5 0 a4.75 4.75 0 1 0 -9.5 0zM631.75 769.5 a4.75 4.75 0 1 0 9.5 0 a4.75 4.75 0 1 0 -9.5 0z" fill="url(&quot;#SvgjsRadialGradient6384&quot;)"></path><path d="M845.5 237.5L864.5 237.5L883.5 237.5M940.5 218.5L959.5 218.5L978.5 218.5M408.5 275.5L427.5 256.5M484.5 256.5L503.5 237.5L522.5 237.5L541.5 237.5L560.5 237.5M465.5 256.5L484.5 237.5M921.5 218.5L940.5 199.5M750.5 256.5L769.5 256.5M731.5 256.5L750.5 237.5M902.5 218.5L921.5 199.5M199.5 370.5L218.5 370.5M389.5 275.5L408.5 256.5M-9.5 389.5L9.5 389.5L28.5 389.5L47.5 389.5L66.5 389.5L85.5 389.5L104.5 389.5L123.5 389.5L142.5 389.5L161.5 370.5L180.5 370.5L199.5 370.5L218.5 351.5L237.5 351.5L256.5 351.5L275.5 351.5L294.5 332.5L313.5 313.5L332.5 313.5L351.5 294.5L370.5 275.5L389.5 275.5L408.5 275.5L427.5 275.5L446.5 256.5L465.5 256.5L484.5 256.5L503.5 256.5L522.5 256.5L541.5 256.5L560.5 256.5L579.5 256.5L598.5 256.5L617.5 256.5L636.5 256.5L655.5 256.5L674.5 256.5L693.5 256.5L712.5 256.5L731.5 256.5L750.5 256.5L769.5 237.5L788.5 237.5L807.5 237.5L826.5 237.5L845.5 237.5L864.5 218.5L883.5 218.5L902.5 218.5L921.5 218.5L940.5 218.5L959.5 199.5" stroke="url(&quot;#SvgjsRadialGradient6384&quot;)" stroke-width="3.17"></path><path d="M954.75 199.5 a4.75 4.75 0 1 0 9.5 0 a4.75 4.75 0 1 0 -9.5 0zM878.75 237.5 a4.75 4.75 0 1 0 9.5 0 a4.75 4.75 0 1 0 -9.5 0zM973.75 218.5 a4.75 4.75 0 1 0 9.5 0 a4.75 4.75 0 1 0 -9.5 0zM422.75 256.5 a4.75 4.75 0 1 0 9.5 0 a4.75 4.75 0 1 0 -9.5 0zM555.75 237.5 a4.75 4.75 0 1 0 9.5 0 a4.75 4.75 0 1 0 -9.5 0zM479.75 237.5 a4.75 4.75 0 1 0 9.5 0 a4.75 4.75 0 1 0 -9.5 0zM935.75 199.5 a4.75 4.75 0 1 0 9.5 0 a4.75 4.75 0 1 0 -9.5 0zM764.75 256.5 a4.75 4.75 0 1 0 9.5 0 a4.75 4.75 0 1 0 -9.5 0zM745.75 237.5 a4.75 4.75 0 1 0 9.5 0 a4.75 4.75 0 1 0 -9.5 0zM916.75 199.5 a4.75 4.75 0 1 0 9.5 0 a4.75 4.75 0 1 0 -9.5 0zM213.75 370.5 a4.75 4.75 0 1 0 9.5 0 a4.75 4.75 0 1 0 -9.5 0zM403.75 256.5 a4.75 4.75 0 1 0 9.5 0 a4.75 4.75 0 1 0 -9.5 0z" fill="url(&quot;#SvgjsRadialGradient6384&quot;)"></path><path d="M921.5 864.5L940.5 883.5L959.5 883.5L978.5 883.5M1035.5 864.5L1054.5 864.5L1073.5 864.5L1092.5 883.5M693.5 845.5L712.5 826.5L731.5 826.5L750.5 826.5L769.5 826.5M864.5 864.5L883.5 883.5L902.5 883.5L921.5 883.5M826.5 864.5L845.5 883.5L864.5 883.5M731.5 845.5L750.5 864.5M636.5 845.5L655.5 864.5M370.5 807.5L389.5 788.5L408.5 788.5M655.5 845.5L674.5 826.5L693.5 826.5M579.5 807.5L598.5 807.5M503.5 807.5L522.5 788.5L541.5 788.5L560.5 788.5M674.5 845.5L693.5 864.5L712.5 864.5L731.5 864.5M294.5 788.5L313.5 788.5M997.5 864.5L1016.5 883.5M-9.5 693.5L9.5 693.5L28.5 712.5L47.5 712.5L66.5 731.5L85.5 750.5L104.5 750.5L123.5 750.5L142.5 769.5L161.5 769.5L180.5 788.5L199.5 788.5L218.5 788.5L237.5 788.5L256.5 788.5L275.5 788.5L294.5 788.5L313.5 807.5L332.5 807.5L351.5 807.5L370.5 807.5L389.5 807.5L408.5 807.5L427.5 807.5L446.5 807.5L465.5 807.5L484.5 807.5L503.5 807.5L522.5 807.5L541.5 807.5L560.5 807.5L579.5 807.5L598.5 826.5L617.5 845.5L636.5 845.5L655.5 845.5L674.5 845.5L693.5 845.5L712.5 845.5L731.5 845.5L750.5 845.5L769.5 845.5L788.5 864.5L807.5 864.5L826.5 864.5L845.5 864.5L864.5 864.5L883.5 864.5L902.5 864.5L921.5 864.5L940.5 864.5L959.5 864.5L978.5 864.5L997.5 864.5L1016.5 864.5L1035.5 864.5L1054.5 883.5" stroke="url(&quot;#SvgjsRadialGradient6384&quot;)" stroke-width="3.17"></path><path d="M1049.75 883.5 a4.75 4.75 0 1 0 9.5 0 a4.75 4.75 0 1 0 -9.5 0zM973.75 883.5 a4.75 4.75 0 1 0 9.5 0 a4.75 4.75 0 1 0 -9.5 0zM1087.75 883.5 a4.75 4.75 0 1 0 9.5 0 a4.75 4.75 0 1 0 -9.5 0zM764.75 826.5 a4.75 4.75 0 1 0 9.5 0 a4.75 4.75 0 1 0 -9.5 0zM916.75 883.5 a4.75 4.75 0 1 0 9.5 0 a4.75 4.75 0 1 0 -9.5 0zM859.75 883.5 a4.75 4.75 0 1 0 9.5 0 a4.75 4.75 0 1 0 -9.5 0zM745.75 864.5 a4.75 4.75 0 1 0 9.5 0 a4.75 4.75 0 1 0 -9.5 0zM650.75 864.5 a4.75 4.75 0 1 0 9.5 0 a4.75 4.75 0 1 0 -9.5 0zM403.75 788.5 a4.75 4.75 0 1 0 9.5 0 a4.75 4.75 0 1 0 -9.5 0zM688.75 826.5 a4.75 4.75 0 1 0 9.5 0 a4.75 4.75 0 1 0 -9.5 0zM593.75 807.5 a4.75 4.75 0 1 0 9.5 0 a4.75 4.75 0 1 0 -9.5 0zM555.75 788.5 a4.75 4.75 0 1 0 9.5 0 a4.75 4.75 0 1 0 -9.5 0zM726.75 864.5 a4.75 4.75 0 1 0 9.5 0 a4.75 4.75 0 1 0 -9.5 0zM308.75 788.5 a4.75 4.75 0 1 0 9.5 0 a4.75 4.75 0 1 0 -9.5 0zM1011.75 883.5 a4.75 4.75 0 1 0 9.5 0 a4.75 4.75 0 1 0 -9.5 0z" fill="url(&quot;#SvgjsRadialGradient6384&quot;)"></path><path d="M85.5 370.5L104.5 351.5L123.5 351.5L142.5 351.5L161.5 332.5M180.5 351.5L199.5 332.5M66.5 370.5L85.5 351.5M-9.5 370.5L9.5 370.5L28.5 370.5L47.5 370.5L66.5 370.5L85.5 370.5L104.5 370.5L123.5 370.5L142.5 370.5L161.5 351.5L180.5 351.5L199.5 351.5L218.5 332.5L237.5 332.5L256.5 332.5L275.5 332.5" stroke="url(&quot;#SvgjsRadialGradient6384&quot;)" stroke-width="3.17"></path><path d="M270.75 332.5 a4.75 4.75 0 1 0 9.5 0 a4.75 4.75 0 1 0 -9.5 0zM156.75 332.5 a4.75 4.75 0 1 0 9.5 0 a4.75 4.75 0 1 0 -9.5 0zM194.75 332.5 a4.75 4.75 0 1 0 9.5 0 a4.75 4.75 0 1 0 -9.5 0zM80.75 351.5 a4.75 4.75 0 1 0 9.5 0 a4.75 4.75 0 1 0 -9.5 0z" fill="url(&quot;#SvgjsRadialGradient6384&quot;)"></path><path d="M275.5 807.5L294.5 826.5M256.5 807.5L275.5 826.5M522.5 826.5L541.5 826.5L560.5 826.5L579.5 826.5L598.5 845.5M218.5 807.5L237.5 826.5L256.5 826.5M-9.5 712.5L9.5 712.5L28.5 731.5L47.5 731.5L66.5 750.5L85.5 769.5L104.5 769.5L123.5 769.5L142.5 788.5L161.5 788.5L180.5 807.5L199.5 807.5L218.5 807.5L237.5 807.5L256.5 807.5L275.5 807.5L294.5 807.5L313.5 826.5L332.5 826.5L351.5 826.5L370.5 826.5L389.5 826.5L408.5 826.5L427.5 826.5L446.5 826.5L465.5 826.5L484.5 826.5L503.5 826.5L522.5 826.5L541.5 845.5L560.5 845.5" stroke="url(&quot;#SvgjsRadialGradient6384&quot;)" stroke-width="3.17"></path><path d="M555.75 845.5 a4.75 4.75 0 1 0 9.5 0 a4.75 4.75 0 1 0 -9.5 0zM289.75 826.5 a4.75 4.75 0 1 0 9.5 0 a4.75 4.75 0 1 0 -9.5 0zM270.75 826.5 a4.75 4.75 0 1 0 9.5 0 a4.75 4.75 0 1 0 -9.5 0zM593.75 845.5 a4.75 4.75 0 1 0 9.5 0 a4.75 4.75 0 1 0 -9.5 0zM251.75 826.5 a4.75 4.75 0 1 0 9.5 0 a4.75 4.75 0 1 0 -9.5 0z" fill="url(&quot;#SvgjsRadialGradient6384&quot;)"></path><path d="M-9.5 351.5L9.5 351.5L28.5 351.5L47.5 351.5L66.5 332.5L85.5 332.5L104.5 332.5" stroke="url(&quot;#SvgjsRadialGradient6384&quot;)" stroke-width="3.17"></path><path d="M99.75 332.5 a4.75 4.75 0 1 0 9.5 0 a4.75 4.75 0 1 0 -9.5 0z" fill="url(&quot;#SvgjsRadialGradient6384&quot;)"></path><path d="M-9.5 731.5L9.5 731.5L28.5 750.5L47.5 750.5L66.5 769.5L85.5 788.5L104.5 788.5L123.5 788.5L142.5 807.5L161.5 807.5L180.5 826.5L199.5 826.5L218.5 845.5L237.5 845.5L256.5 845.5L275.5 845.5L294.5 845.5L313.5 845.5L332.5 845.5L351.5 845.5" stroke="url(&quot;#SvgjsRadialGradient6384&quot;)" stroke-width="3.17"></path><path d="M346.75 845.5 a4.75 4.75 0 1 0 9.5 0 a4.75 4.75 0 1 0 -9.5 0z" fill="url(&quot;#SvgjsRadialGradient6384&quot;)"></path><path d="M313.5 294.5L332.5 275.5M275.5 313.5L294.5 313.5M-9.5 332.5L9.5 332.5L28.5 332.5L47.5 332.5L66.5 313.5L85.5 313.5L104.5 313.5L123.5 313.5L142.5 313.5L161.5 313.5L180.5 313.5L199.5 313.5L218.5 313.5L237.5 313.5L256.5 313.5L275.5 313.5L294.5 294.5L313.5 294.5L332.5 294.5L351.5 275.5L370.5 256.5" stroke="url(&quot;#SvgjsRadialGradient6384&quot;)" stroke-width="3.17"></path><path d="M365.75 256.5 a4.75 4.75 0 1 0 9.5 0 a4.75 4.75 0 1 0 -9.5 0zM327.75 275.5 a4.75 4.75 0 1 0 9.5 0 a4.75 4.75 0 1 0 -9.5 0zM289.75 313.5 a4.75 4.75 0 1 0 9.5 0 a4.75 4.75 0 1 0 -9.5 0z" fill="url(&quot;#SvgjsRadialGradient6384&quot;)"></path><path d="M693.5 883.5L712.5 902.5L731.5 902.5M370.5 864.5L389.5 864.5L408.5 864.5L427.5 864.5L446.5 864.5L465.5 864.5L484.5 864.5L503.5 864.5L522.5 864.5M750.5 883.5L769.5 883.5M617.5 883.5L636.5 864.5M560.5 864.5L579.5 864.5L598.5 864.5L617.5 864.5M-9.5 750.5L9.5 750.5L28.5 769.5L47.5 769.5L66.5 788.5L85.5 807.5L104.5 807.5L123.5 807.5L142.5 826.5L161.5 826.5L180.5 845.5L199.5 845.5L218.5 864.5L237.5 864.5L256.5 864.5L275.5 864.5L294.5 864.5L313.5 864.5L332.5 864.5L351.5 864.5L370.5 864.5L389.5 845.5L408.5 845.5L427.5 845.5L446.5 845.5L465.5 845.5L484.5 845.5L503.5 845.5L522.5 845.5L541.5 864.5L560.5 864.5L579.5 883.5L598.5 883.5L617.5 883.5L636.5 883.5L655.5 883.5L674.5 883.5L693.5 883.5L712.5 883.5L731.5 883.5L750.5 883.5L769.5 864.5" stroke="url(&quot;#SvgjsRadialGradient6384&quot;)" stroke-width="3.17"></path><path d="M764.75 864.5 a4.75 4.75 0 1 0 9.5 0 a4.75 4.75 0 1 0 -9.5 0zM726.75 902.5 a4.75 4.75 0 1 0 9.5 0 a4.75 4.75 0 1 0 -9.5 0zM517.75 864.5 a4.75 4.75 0 1 0 9.5 0 a4.75 4.75 0 1 0 -9.5 0zM764.75 883.5 a4.75 4.75 0 1 0 9.5 0 a4.75 4.75 0 1 0 -9.5 0zM631.75 864.5 a4.75 4.75 0 1 0 9.5 0 a4.75 4.75 0 1 0 -9.5 0zM612.75 864.5 a4.75 4.75 0 1 0 9.5 0 a4.75 4.75 0 1 0 -9.5 0z" fill="url(&quot;#SvgjsRadialGradient6384&quot;)"></path><path d="M9.5 313.5L28.5 294.5L47.5 294.5M218.5 294.5L237.5 275.5L256.5 275.5M199.5 294.5L218.5 275.5M-9.5 313.5L9.5 313.5L28.5 313.5L47.5 313.5L66.5 294.5L85.5 294.5L104.5 294.5L123.5 294.5L142.5 294.5L161.5 294.5L180.5 294.5L199.5 294.5L218.5 294.5L237.5 294.5L256.5 294.5L275.5 294.5L294.5 275.5" stroke="url(&quot;#SvgjsRadialGradient6384&quot;)" stroke-width="3.17"></path><path d="M289.75 275.5 a4.75 4.75 0 1 0 9.5 0 a4.75 4.75 0 1 0 -9.5 0zM42.75 294.5 a4.75 4.75 0 1 0 9.5 0 a4.75 4.75 0 1 0 -9.5 0zM251.75 275.5 a4.75 4.75 0 1 0 9.5 0 a4.75 4.75 0 1 0 -9.5 0zM213.75 275.5 a4.75 4.75 0 1 0 9.5 0 a4.75 4.75 0 1 0 -9.5 0z" fill="url(&quot;#SvgjsRadialGradient6384&quot;)"></path><path d="M579.5 902.5L598.5 921.5L617.5 921.5L636.5 921.5L655.5 921.5L674.5 940.5L693.5 940.5L712.5 940.5L731.5 940.5L750.5 940.5L769.5 940.5L788.5 940.5L807.5 940.5L826.5 940.5L845.5 921.5L864.5 921.5M674.5 902.5L693.5 902.5M807.5 902.5L826.5 883.5M750.5 902.5L769.5 921.5L788.5 921.5L807.5 921.5L826.5 921.5M427.5 883.5L446.5 902.5L465.5 902.5L484.5 902.5L503.5 902.5L522.5 902.5L541.5 921.5L560.5 921.5M389.5 883.5L408.5 902.5L427.5 902.5M731.5 921.5L750.5 921.5M921.5 902.5L940.5 921.5M902.5 902.5L921.5 921.5M959.5 902.5L978.5 921.5L997.5 921.5L1016.5 902.5L1035.5 902.5L1054.5 902.5L1073.5 902.5L1092.5 902.5M541.5 883.5L560.5 902.5M883.5 902.5L902.5 921.5L921.5 940.5L940.5 940.5L959.5 940.5M788.5 902.5L807.5 883.5M-9.5 769.5L9.5 769.5L28.5 788.5L47.5 788.5L66.5 807.5L85.5 826.5L104.5 826.5L123.5 826.5L142.5 845.5L161.5 845.5L180.5 864.5L199.5 864.5L218.5 883.5L237.5 883.5L256.5 883.5L275.5 883.5L294.5 883.5L313.5 883.5L332.5 883.5L351.5 883.5L370.5 883.5L389.5 883.5L408.5 883.5L427.5 883.5L446.5 883.5L465.5 883.5L484.5 883.5L503.5 883.5L522.5 883.5L541.5 883.5L560.5 883.5L579.5 902.5L598.5 902.5L617.5 902.5L636.5 902.5L655.5 902.5L674.5 902.5L693.5 921.5L712.5 921.5L731.5 921.5L750.5 902.5L769.5 902.5L788.5 902.5L807.5 902.5L826.5 902.5L845.5 902.5L864.5 902.5L883.5 902.5L902.5 902.5L921.5 902.5L940.5 902.5L959.5 902.5L978.5 902.5" stroke="url(&quot;#SvgjsRadialGradient6384&quot;)" stroke-width="3.17"></path><path d="M973.75 902.5 a4.75 4.75 0 1 0 9.5 0 a4.75 4.75 0 1 0 -9.5 0zM859.75 921.5 a4.75 4.75 0 1 0 9.5 0 a4.75 4.75 0 1 0 -9.5 0zM688.75 902.5 a4.75 4.75 0 1 0 9.5 0 a4.75 4.75 0 1 0 -9.5 0zM821.75 883.5 a4.75 4.75 0 1 0 9.5 0 a4.75 4.75 0 1 0 -9.5 0zM821.75 921.5 a4.75 4.75 0 1 0 9.5 0 a4.75 4.75 0 1 0 -9.5 0zM555.75 921.5 a4.75 4.75 0 1 0 9.5 0 a4.75 4.75 0 1 0 -9.5 0zM422.75 902.5 a4.75 4.75 0 1 0 9.5 0 a4.75 4.75 0 1 0 -9.5 0zM745.75 921.5 a4.75 4.75 0 1 0 9.5 0 a4.75 4.75 0 1 0 -9.5 0zM935.75 921.5 a4.75 4.75 0 1 0 9.5 0 a4.75 4.75 0 1 0 -9.5 0zM916.75 921.5 a4.75 4.75 0 1 0 9.5 0 a4.75 4.75 0 1 0 -9.5 0zM1087.75 902.5 a4.75 4.75 0 1 0 9.5 0 a4.75 4.75 0 1 0 -9.5 0zM555.75 902.5 a4.75 4.75 0 1 0 9.5 0 a4.75 4.75 0 1 0 -9.5 0zM954.75 940.5 a4.75 4.75 0 1 0 9.5 0 a4.75 4.75 0 1 0 -9.5 0zM802.75 883.5 a4.75 4.75 0 1 0 9.5 0 a4.75 4.75 0 1 0 -9.5 0z" fill="url(&quot;#SvgjsRadialGradient6384&quot;)"></path><path d="M294.5 256.5L313.5 237.5L332.5 237.5L351.5 237.5M560.5 218.5L579.5 218.5L598.5 218.5L617.5 218.5L636.5 218.5L655.5 218.5L674.5 218.5L693.5 218.5M180.5 275.5L199.5 275.5M446.5 237.5L465.5 237.5M712.5 237.5L731.5 237.5M275.5 256.5L294.5 237.5M-9.5 294.5L9.5 275.5L28.5 275.5L47.5 275.5L66.5 275.5L85.5 275.5L104.5 275.5L123.5 275.5L142.5 275.5L161.5 275.5L180.5 275.5L199.5 256.5L218.5 256.5L237.5 256.5L256.5 256.5L275.5 256.5L294.5 256.5L313.5 256.5L332.5 256.5L351.5 256.5L370.5 237.5L389.5 237.5L408.5 237.5L427.5 237.5L446.5 237.5L465.5 218.5L484.5 218.5L503.5 218.5L522.5 218.5L541.5 218.5L560.5 218.5L579.5 237.5L598.5 237.5L617.5 237.5L636.5 237.5L655.5 237.5L674.5 237.5L693.5 237.5L712.5 237.5L731.5 218.5L750.5 218.5L769.5 218.5L788.5 218.5L807.5 218.5L826.5 218.5" stroke="url(&quot;#SvgjsRadialGradient6384&quot;)" stroke-width="3.17"></path><path d="M821.75 218.5 a4.75 4.75 0 1 0 9.5 0 a4.75 4.75 0 1 0 -9.5 0zM346.75 237.5 a4.75 4.75 0 1 0 9.5 0 a4.75 4.75 0 1 0 -9.5 0zM688.75 218.5 a4.75 4.75 0 1 0 9.5 0 a4.75 4.75 0 1 0 -9.5 0zM194.75 275.5 a4.75 4.75 0 1 0 9.5 0 a4.75 4.75 0 1 0 -9.5 0zM460.75 237.5 a4.75 4.75 0 1 0 9.5 0 a4.75 4.75 0 1 0 -9.5 0zM726.75 237.5 a4.75 4.75 0 1 0 9.5 0 a4.75 4.75 0 1 0 -9.5 0zM289.75 237.5 a4.75 4.75 0 1 0 9.5 0 a4.75 4.75 0 1 0 -9.5 0z" fill="url(&quot;#SvgjsRadialGradient6384&quot;)"></path><path d="M408.5 921.5L427.5 940.5L446.5 940.5L465.5 940.5L484.5 959.5L503.5 959.5M465.5 921.5L484.5 921.5L503.5 921.5L522.5 921.5M883.5 978.5L902.5 997.5L921.5 997.5M598.5 940.5L617.5 959.5L636.5 959.5L655.5 959.5L674.5 978.5L693.5 978.5L712.5 997.5L731.5 997.5L750.5 997.5M560.5 940.5L579.5 959.5L598.5 959.5M750.5 978.5L769.5 959.5L788.5 959.5L807.5 959.5L826.5 959.5M180.5 883.5L199.5 902.5L218.5 921.5L237.5 921.5L256.5 921.5M826.5 997.5L845.5 978.5L864.5 959.5L883.5 959.5L902.5 959.5M389.5 921.5L408.5 940.5L427.5 959.5L446.5 978.5L465.5 978.5M712.5 978.5L731.5 959.5L750.5 959.5M370.5 902.5L389.5 902.5M351.5 902.5L370.5 921.5L389.5 940.5M-9.5 788.5L9.5 788.5L28.5 807.5L47.5 807.5L66.5 826.5L85.5 845.5L104.5 845.5L123.5 845.5L142.5 864.5L161.5 864.5L180.5 883.5L199.5 883.5L218.5 902.5L237.5 902.5L256.5 902.5L275.5 902.5L294.5 902.5L313.5 902.5L332.5 902.5L351.5 902.5L370.5 902.5L389.5 921.5L408.5 921.5L427.5 921.5L446.5 921.5L465.5 921.5L484.5 940.5L503.5 940.5L522.5 940.5L541.5 940.5L560.5 940.5L579.5 940.5L598.5 940.5L617.5 940.5L636.5 940.5L655.5 940.5L674.5 959.5L693.5 959.5L712.5 978.5L731.5 978.5L750.5 978.5L769.5 978.5L788.5 997.5L807.5 997.5L826.5 997.5L845.5 997.5L864.5 978.5L883.5 978.5L902.5 978.5L921.5 978.5" stroke="url(&quot;#SvgjsRadialGradient6384&quot;)" stroke-width="3.17"></path><path d="M916.75 978.5 a4.75 4.75 0 1 0 9.5 0 a4.75 4.75 0 1 0 -9.5 0zM498.75 959.5 a4.75 4.75 0 1 0 9.5 0 a4.75 4.75 0 1 0 -9.5 0zM517.75 921.5 a4.75 4.75 0 1 0 9.5 0 a4.75 4.75 0 1 0 -9.5 0zM916.75 997.5 a4.75 4.75 0 1 0 9.5 0 a4.75 4.75 0 1 0 -9.5 0zM745.75 997.5 a4.75 4.75 0 1 0 9.5 0 a4.75 4.75 0 1 0 -9.5 0zM593.75 959.5 a4.75 4.75 0 1 0 9.5 0 a4.75 4.75 0 1 0 -9.5 0zM821.75 959.5 a4.75 4.75 0 1 0 9.5 0 a4.75 4.75 0 1 0 -9.5 0zM251.75 921.5 a4.75 4.75 0 1 0 9.5 0 a4.75 4.75 0 1 0 -9.5 0zM897.75 959.5 a4.75 4.75 0 1 0 9.5 0 a4.75 4.75 0 1 0 -9.5 0zM460.75 978.5 a4.75 4.75 0 1 0 9.5 0 a4.75 4.75 0 1 0 -9.5 0zM745.75 959.5 a4.75 4.75 0 1 0 9.5 0 a4.75 4.75 0 1 0 -9.5 0zM384.75 902.5 a4.75 4.75 0 1 0 9.5 0 a4.75 4.75 0 1 0 -9.5 0zM384.75 940.5 a4.75 4.75 0 1 0 9.5 0 a4.75 4.75 0 1 0 -9.5 0z" fill="url(&quot;#SvgjsRadialGradient6384&quot;)"></path><path d="M826.5 199.5L845.5 180.5L864.5 180.5L883.5 180.5L902.5 161.5L921.5 161.5M655.5 199.5L674.5 180.5L693.5 180.5L712.5 180.5L731.5 180.5L750.5 180.5L769.5 180.5L788.5 180.5L807.5 180.5L826.5 180.5L845.5 161.5L864.5 161.5M389.5 218.5L408.5 199.5L427.5 199.5M617.5 199.5L636.5 180.5L655.5 180.5L674.5 161.5L693.5 142.5L712.5 142.5L731.5 142.5M313.5 218.5L332.5 199.5L351.5 199.5L370.5 199.5L389.5 199.5M560.5 180.5L579.5 161.5L598.5 161.5L617.5 180.5M161.5 256.5L180.5 237.5L199.5 218.5L218.5 218.5L237.5 218.5L256.5 199.5L275.5 199.5L294.5 199.5L313.5 199.5L332.5 180.5L351.5 180.5L370.5 180.5L389.5 180.5L408.5 180.5L427.5 180.5L446.5 180.5L465.5 180.5L484.5 180.5M579.5 180.5L598.5 199.5M104.5 256.5L123.5 237.5L142.5 237.5L161.5 237.5L180.5 218.5L199.5 199.5L218.5 199.5L237.5 199.5L256.5 180.5L275.5 180.5L294.5 180.5L313.5 180.5L332.5 161.5M9.5 256.5L28.5 237.5L47.5 237.5M883.5 199.5L902.5 199.5M541.5 199.5L560.5 199.5L579.5 199.5M522.5 199.5L541.5 180.5L560.5 161.5L579.5 142.5L598.5 142.5L617.5 142.5L636.5 142.5L655.5 142.5L674.5 142.5L693.5 123.5L712.5 123.5M-9.5 275.5L9.5 256.5L28.5 256.5L47.5 256.5L66.5 256.5L85.5 256.5L104.5 256.5L123.5 256.5L142.5 256.5L161.5 256.5L180.5 256.5L199.5 237.5L218.5 237.5L237.5 237.5L256.5 237.5L275.5 218.5L294.5 218.5L313.5 218.5L332.5 218.5L351.5 218.5L370.5 218.5L389.5 218.5L408.5 218.5L427.5 218.5L446.5 218.5L465.5 199.5L484.5 199.5L503.5 199.5L522.5 199.5L541.5 199.5L560.5 180.5L579.5 180.5L598.5 180.5L617.5 199.5L636.5 199.5L655.5 199.5L674.5 199.5L693.5 199.5L712.5 199.5L731.5 199.5L750.5 199.5L769.5 199.5L788.5 199.5L807.5 199.5L826.5 199.5L845.5 199.5L864.5 199.5L883.5 199.5L902.5 180.5L921.5 180.5L940.5 180.5L959.5 180.5L978.5 180.5" stroke="url(&quot;#SvgjsRadialGradient6384&quot;)" stroke-width="3.17"></path><path d="M973.75 180.5 a4.75 4.75 0 1 0 9.5 0 a4.75 4.75 0 1 0 -9.5 0zM916.75 161.5 a4.75 4.75 0 1 0 9.5 0 a4.75 4.75 0 1 0 -9.5 0zM859.75 161.5 a4.75 4.75 0 1 0 9.5 0 a4.75 4.75 0 1 0 -9.5 0zM422.75 199.5 a4.75 4.75 0 1 0 9.5 0 a4.75 4.75 0 1 0 -9.5 0zM726.75 142.5 a4.75 4.75 0 1 0 9.5 0 a4.75 4.75 0 1 0 -9.5 0zM384.75 199.5 a4.75 4.75 0 1 0 9.5 0 a4.75 4.75 0 1 0 -9.5 0zM612.75 180.5 a4.75 4.75 0 1 0 9.5 0 a4.75 4.75 0 1 0 -9.5 0zM479.75 180.5 a4.75 4.75 0 1 0 9.5 0 a4.75 4.75 0 1 0 -9.5 0zM593.75 199.5 a4.75 4.75 0 1 0 9.5 0 a4.75 4.75 0 1 0 -9.5 0zM327.75 161.5 a4.75 4.75 0 1 0 9.5 0 a4.75 4.75 0 1 0 -9.5 0zM42.75 237.5 a4.75 4.75 0 1 0 9.5 0 a4.75 4.75 0 1 0 -9.5 0zM897.75 199.5 a4.75 4.75 0 1 0 9.5 0 a4.75 4.75 0 1 0 -9.5 0zM574.75 199.5 a4.75 4.75 0 1 0 9.5 0 a4.75 4.75 0 1 0 -9.5 0zM707.75 123.5 a4.75 4.75 0 1 0 9.5 0 a4.75 4.75 0 1 0 -9.5 0z" fill="url(&quot;#SvgjsRadialGradient6384&quot;)"></path></g></g><defs><mask id="SvgjsMask6383"><rect width="1920" height="1080" fill="#ffffff"></rect></mask><radialGradient cx="0" cy="540" r="1254.92" gradientUnits="userSpaceOnUse" id="SvgjsRadialGradient6384"><stop stop-color="rgba(255, 247, 0, 1)" offset="0.02"></stop><stop stop-color="rgba(67, 195, 58, 1)" offset="0.11"></stop><stop stop-color="rgba(0, 156, 255, 1)" offset="0.39"></stop><stop stop-color="rgba(241, 1, 41, 1)" offset="0.95"></stop></radialGradient><mask id="SvgjsMask6385"><rect width="1920" height="1080" fill="white"></rect><path d="M805.12 598.5 a2.38 2.38 0 1 0 4.76 0 a2.38 2.38 0 1 0 -4.76 0zM634.12 560.5 a2.38 2.38 0 1 0 4.76 0 a2.38 2.38 0 1 0 -4.76 0zM121.12 560.5 a2.38 2.38 0 1 0 4.76 0 a2.38 2.38 0 1 0 -4.76 0zM387.12 522.5 a2.38 2.38 0 1 0 4.76 0 a2.38 2.38 0 1 0 -4.76 0zM102.12 560.5 a2.38 2.38 0 1 0 4.76 0 a2.38 2.38 0 1 0 -4.76 0zM425.12 541.5 a2.38 2.38 0 1 0 4.76 0 a2.38 2.38 0 1 0 -4.76 0zM748.12 522.5 a2.38 2.38 0 1 0 4.76 0 a2.38 2.38 0 1 0 -4.76 0zM45.12 560.5 a2.38 2.38 0 1 0 4.76 0 a2.38 2.38 0 1 0 -4.76 0zM653.12 579.5 a2.38 2.38 0 1 0 4.76 0 a2.38 2.38 0 1 0 -4.76 0zM216.12 541.5 a2.38 2.38 0 1 0 4.76 0 a2.38 2.38 0 1 0 -4.76 0zM710.12 503.5 a2.38 2.38 0 1 0 4.76 0 a2.38 2.38 0 1 0 -4.76 0zM805.12 579.5 a2.38 2.38 0 1 0 4.76 0 a2.38 2.38 0 1 0 -4.76 0z" fill="black"></path><path d="M368.12 503.5 a2.38 2.38 0 1 0 4.76 0 a2.38 2.38 0 1 0 -4.76 0zM349.12 484.5 a2.38 2.38 0 1 0 4.76 0 a2.38 2.38 0 1 0 -4.76 0zM178.12 522.5 a2.38 2.38 0 1 0 4.76 0 a2.38 2.38 0 1 0 -4.76 0z" fill="black"></path><path d="M1033.12 617.5 a2.38 2.38 0 1 0 4.76 0 a2.38 2.38 0 1 0 -4.76 0zM995.12 636.5 a2.38 2.38 0 1 0 4.76 0 a2.38 2.38 0 1 0 -4.76 0zM805.12 617.5 a2.38 2.38 0 1 0 4.76 0 a2.38 2.38 0 1 0 -4.76 0zM748.12 617.5 a2.38 2.38 0 1 0 4.76 0 a2.38 2.38 0 1 0 -4.76 0zM995.12 598.5 a2.38 2.38 0 1 0 4.76 0 a2.38 2.38 0 1 0 -4.76 0zM957.12 636.5 a2.38 2.38 0 1 0 4.76 0 a2.38 2.38 0 1 0 -4.76 0zM577.12 579.5 a2.38 2.38 0 1 0 4.76 0 a2.38 2.38 0 1 0 -4.76 0zM1090.12 636.5 a2.38 2.38 0 1 0 4.76 0 a2.38 2.38 0 1 0 -4.76 0zM216.12 579.5 a2.38 2.38 0 1 0 4.76 0 a2.38 2.38 0 1 0 -4.76 0zM482.12 560.5 a2.38 2.38 0 1 0 4.76 0 a2.38 2.38 0 1 0 -4.76 0zM919.12 617.5 a2.38 2.38 0 1 0 4.76 0 a2.38 2.38 0 1 0 -4.76 0zM311.12 560.5 a2.38 2.38 0 1 0 4.76 0 a2.38 2.38 0 1 0 -4.76 0zM881.12 598.5 a2.38 2.38 0 1 0 4.76 0 a2.38 2.38 0 1 0 -4.76 0zM938.12 636.5 a2.38 2.38 0 1 0 4.76 0 a2.38 2.38 0 1 0 -4.76 0zM349.12 560.5 a2.38 2.38 0 1 0 4.76 0 a2.38 2.38 0 1 0 -4.76 0z" fill="black"></path><path d="M368.12 389.5 a2.38 2.38 0 1 0 4.76 0 a2.38 2.38 0 1 0 -4.76 0zM311.12 465.5 a2.38 2.38 0 1 0 4.76 0 a2.38 2.38 0 1 0 -4.76 0zM368.12 408.5 a2.38 2.38 0 1 0 4.76 0 a2.38 2.38 0 1 0 -4.76 0zM349.12 446.5 a2.38 2.38 0 1 0 4.76 0 a2.38 2.38 0 1 0 -4.76 0zM482.12 427.5 a2.38 2.38 0 1 0 4.76 0 a2.38 2.38 0 1 0 -4.76 0zM292.12 465.5 a2.38 2.38 0 1 0 4.76 0 a2.38 2.38 0 1 0 -4.76 0z" fill="black"></path><path d="M1090.12 655.5 a2.38 2.38 0 1 0 4.76 0 a2.38 2.38 0 1 0 -4.76 0zM178.12 579.5 a2.38 2.38 0 1 0 4.76 0 a2.38 2.38 0 1 0 -4.76 0zM1071.12 636.5 a2.38 2.38 0 1 0 4.76 0 a2.38 2.38 0 1 0 -4.76 0zM672.12 655.5 a2.38 2.38 0 1 0 4.76 0 a2.38 2.38 0 1 0 -4.76 0zM957.12 693.5 a2.38 2.38 0 1 0 4.76 0 a2.38 2.38 0 1 0 -4.76 0zM1014.12 674.5 a2.38 2.38 0 1 0 4.76 0 a2.38 2.38 0 1 0 -4.76 0zM881.12 674.5 a2.38 2.38 0 1 0 4.76 0 a2.38 2.38 0 1 0 -4.76 0zM900.12 693.5 a2.38 2.38 0 1 0 4.76 0 a2.38 2.38 0 1 0 -4.76 0zM1052.12 674.5 a2.38 2.38 0 1 0 4.76 0 a2.38 2.38 0 1 0 -4.76 0zM1090.12 674.5 a2.38 2.38 0 1 0 4.76 0 a2.38 2.38 0 1 0 -4.76 0zM786.12 693.5 a2.38 2.38 0 1 0 4.76 0 a2.38 2.38 0 1 0 -4.76 0zM957.12 712.5 a2.38 2.38 0 1 0 4.76 0 a2.38 2.38 0 1 0 -4.76 0zM368.12 598.5 a2.38 2.38 0 1 0 4.76 0 a2.38 2.38 0 1 0 -4.76 0zM463.12 560.5 a2.38 2.38 0 1 0 4.76 0 a2.38 2.38 0 1 0 -4.76 0zM311.12 598.5 a2.38 2.38 0 1 0 4.76 0 a2.38 2.38 0 1 0 -4.76 0z" fill="black"></path><path d="M862.12 313.5 a2.38 2.38 0 1 0 4.76 0 a2.38 2.38 0 1 0 -4.76 0zM824.12 389.5 a2.38 2.38 0 1 0 4.76 0 a2.38 2.38 0 1 0 -4.76 0zM862.12 332.5 a2.38 2.38 0 1 0 4.76 0 a2.38 2.38 0 1 0 -4.76 0zM482.12 389.5 a2.38 2.38 0 1 0 4.76 0 a2.38 2.38 0 1 0 -4.76 0zM862.12 370.5 a2.38 2.38 0 1 0 4.76 0 a2.38 2.38 0 1 0 -4.76 0zM710.12 408.5 a2.38 2.38 0 1 0 4.76 0 a2.38 2.38 0 1 0 -4.76 0zM824.12 313.5 a2.38 2.38 0 1 0 4.76 0 a2.38 2.38 0 1 0 -4.76 0zM843.12 351.5 a2.38 2.38 0 1 0 4.76 0 a2.38 2.38 0 1 0 -4.76 0zM463.12 408.5 a2.38 2.38 0 1 0 4.76 0 a2.38 2.38 0 1 0 -4.76 0zM672.12 351.5 a2.38 2.38 0 1 0 4.76 0 a2.38 2.38 0 1 0 -4.76 0zM463.12 351.5 a2.38 2.38 0 1 0 4.76 0 a2.38 2.38 0 1 0 -4.76 0z" fill="black"></path><path d="M748.12 693.5 a2.38 2.38 0 1 0 4.76 0 a2.38 2.38 0 1 0 -4.76 0zM691.12 674.5 a2.38 2.38 0 1 0 4.76 0 a2.38 2.38 0 1 0 -4.76 0zM558.12 655.5 a2.38 2.38 0 1 0 4.76 0 a2.38 2.38 0 1 0 -4.76 0zM596.12 636.5 a2.38 2.38 0 1 0 4.76 0 a2.38 2.38 0 1 0 -4.76 0zM520.12 655.5 a2.38 2.38 0 1 0 4.76 0 a2.38 2.38 0 1 0 -4.76 0zM501.12 655.5 a2.38 2.38 0 1 0 4.76 0 a2.38 2.38 0 1 0 -4.76 0zM653.12 674.5 a2.38 2.38 0 1 0 4.76 0 a2.38 2.38 0 1 0 -4.76 0zM463.12 655.5 a2.38 2.38 0 1 0 4.76 0 a2.38 2.38 0 1 0 -4.76 0zM444.12 655.5 a2.38 2.38 0 1 0 4.76 0 a2.38 2.38 0 1 0 -4.76 0zM729.12 674.5 a2.38 2.38 0 1 0 4.76 0 a2.38 2.38 0 1 0 -4.76 0zM292.12 598.5 a2.38 2.38 0 1 0 4.76 0 a2.38 2.38 0 1 0 -4.76 0z" fill="black"></path><path d="M615.12 351.5 a2.38 2.38 0 1 0 4.76 0 a2.38 2.38 0 1 0 -4.76 0zM520.12 332.5 a2.38 2.38 0 1 0 4.76 0 a2.38 2.38 0 1 0 -4.76 0zM444.12 351.5 a2.38 2.38 0 1 0 4.76 0 a2.38 2.38 0 1 0 -4.76 0zM482.12 332.5 a2.38 2.38 0 1 0 4.76 0 a2.38 2.38 0 1 0 -4.76 0z" fill="black"></path><path d="M159.12 636.5 a2.38 2.38 0 1 0 4.76 0 a2.38 2.38 0 1 0 -4.76 0zM197.12 655.5 a2.38 2.38 0 1 0 4.76 0 a2.38 2.38 0 1 0 -4.76 0zM102.12 655.5 a2.38 2.38 0 1 0 4.76 0 a2.38 2.38 0 1 0 -4.76 0z" fill="black"></path><path d="M767.12 332.5 a2.38 2.38 0 1 0 4.76 0 a2.38 2.38 0 1 0 -4.76 0zM805.12 313.5 a2.38 2.38 0 1 0 4.76 0 a2.38 2.38 0 1 0 -4.76 0zM596.12 313.5 a2.38 2.38 0 1 0 4.76 0 a2.38 2.38 0 1 0 -4.76 0zM672.12 313.5 a2.38 2.38 0 1 0 4.76 0 a2.38 2.38 0 1 0 -4.76 0zM577.12 313.5 a2.38 2.38 0 1 0 4.76 0 a2.38 2.38 0 1 0 -4.76 0zM558.12 313.5 a2.38 2.38 0 1 0 4.76 0 a2.38 2.38 0 1 0 -4.76 0zM653.12 313.5 a2.38 2.38 0 1 0 4.76 0 a2.38 2.38 0 1 0 -4.76 0zM539.12 313.5 a2.38 2.38 0 1 0 4.76 0 a2.38 2.38 0 1 0 -4.76 0zM634.12 313.5 a2.38 2.38 0 1 0 4.76 0 a2.38 2.38 0 1 0 -4.76 0z" fill="black"></path><path d="M976.12 750.5 a2.38 2.38 0 1 0 4.76 0 a2.38 2.38 0 1 0 -4.76 0zM824.12 712.5 a2.38 2.38 0 1 0 4.76 0 a2.38 2.38 0 1 0 -4.76 0zM1014.12 769.5 a2.38 2.38 0 1 0 4.76 0 a2.38 2.38 0 1 0 -4.76 0zM862.12 750.5 a2.38 2.38 0 1 0 4.76 0 a2.38 2.38 0 1 0 -4.76 0zM406.12 712.5 a2.38 2.38 0 1 0 4.76 0 a2.38 2.38 0 1 0 -4.76 0zM900.12 769.5 a2.38 2.38 0 1 0 4.76 0 a2.38 2.38 0 1 0 -4.76 0zM824.12 769.5 a2.38 2.38 0 1 0 4.76 0 a2.38 2.38 0 1 0 -4.76 0zM520.12 693.5 a2.38 2.38 0 1 0 4.76 0 a2.38 2.38 0 1 0 -4.76 0zM596.12 693.5 a2.38 2.38 0 1 0 4.76 0 a2.38 2.38 0 1 0 -4.76 0zM273.12 674.5 a2.38 2.38 0 1 0 4.76 0 a2.38 2.38 0 1 0 -4.76 0zM691.12 731.5 a2.38 2.38 0 1 0 4.76 0 a2.38 2.38 0 1 0 -4.76 0zM938.12 769.5 a2.38 2.38 0 1 0 4.76 0 a2.38 2.38 0 1 0 -4.76 0zM501.12 712.5 a2.38 2.38 0 1 0 4.76 0 a2.38 2.38 0 1 0 -4.76 0zM957.12 731.5 a2.38 2.38 0 1 0 4.76 0 a2.38 2.38 0 1 0 -4.76 0z" fill="black"></path><path d="M938.12 294.5 a2.38 2.38 0 1 0 4.76 0 a2.38 2.38 0 1 0 -4.76 0zM957.12 313.5 a2.38 2.38 0 1 0 4.76 0 a2.38 2.38 0 1 0 -4.76 0zM1033.12 313.5 a2.38 2.38 0 1 0 4.76 0 a2.38 2.38 0 1 0 -4.76 0z" fill="black"></path><path d="M178.12 712.5 a2.38 2.38 0 1 0 4.76 0 a2.38 2.38 0 1 0 -4.76 0zM121.12 693.5 a2.38 2.38 0 1 0 4.76 0 a2.38 2.38 0 1 0 -4.76 0zM178.12 731.5 a2.38 2.38 0 1 0 4.76 0 a2.38 2.38 0 1 0 -4.76 0zM159.12 731.5 a2.38 2.38 0 1 0 4.76 0 a2.38 2.38 0 1 0 -4.76 0z" fill="black"></path><path d="M1052.12 237.5 a2.38 2.38 0 1 0 4.76 0 a2.38 2.38 0 1 0 -4.76 0zM254.12 370.5 a2.38 2.38 0 1 0 4.76 0 a2.38 2.38 0 1 0 -4.76 0zM235.12 370.5 a2.38 2.38 0 1 0 4.76 0 a2.38 2.38 0 1 0 -4.76 0zM919.12 256.5 a2.38 2.38 0 1 0 4.76 0 a2.38 2.38 0 1 0 -4.76 0zM1090.12 218.5 a2.38 2.38 0 1 0 4.76 0 a2.38 2.38 0 1 0 -4.76 0zM900.12 237.5 a2.38 2.38 0 1 0 4.76 0 a2.38 2.38 0 1 0 -4.76 0zM976.12 256.5 a2.38 2.38 0 1 0 4.76 0 a2.38 2.38 0 1 0 -4.76 0zM805.12 256.5 a2.38 2.38 0 1 0 4.76 0 a2.38 2.38 0 1 0 -4.76 0zM311.12 351.5 a2.38 2.38 0 1 0 4.76 0 a2.38 2.38 0 1 0 -4.76 0zM995.12 294.5 a2.38 2.38 0 1 0 4.76 0 a2.38 2.38 0 1 0 -4.76 0zM976.12 294.5 a2.38 2.38 0 1 0 4.76 0 a2.38 2.38 0 1 0 -4.76 0zM1090.12 256.5 a2.38 2.38 0 1 0 4.76 0 a2.38 2.38 0 1 0 -4.76 0zM1090.12 294.5 a2.38 2.38 0 1 0 4.76 0 a2.38 2.38 0 1 0 -4.76 0zM786.12 256.5 a2.38 2.38 0 1 0 4.76 0 a2.38 2.38 0 1 0 -4.76 0z" fill="black"></path><path d="M1033.12 788.5 a2.38 2.38 0 1 0 4.76 0 a2.38 2.38 0 1 0 -4.76 0zM919.12 807.5 a2.38 2.38 0 1 0 4.76 0 a2.38 2.38 0 1 0 -4.76 0zM1090.12 807.5 a2.38 2.38 0 1 0 4.76 0 a2.38 2.38 0 1 0 -4.76 0zM368.12 750.5 a2.38 2.38 0 1 0 4.76 0 a2.38 2.38 0 1 0 -4.76 0zM767.12 769.5 a2.38 2.38 0 1 0 4.76 0 a2.38 2.38 0 1 0 -4.76 0zM254.12 731.5 a2.38 2.38 0 1 0 4.76 0 a2.38 2.38 0 1 0 -4.76 0zM748.12 769.5 a2.38 2.38 0 1 0 4.76 0 a2.38 2.38 0 1 0 -4.76 0zM653.12 750.5 a2.38 2.38 0 1 0 4.76 0 a2.38 2.38 0 1 0 -4.76 0zM919.12 845.5 a2.38 2.38 0 1 0 4.76 0 a2.38 2.38 0 1 0 -4.76 0zM520.12 750.5 a2.38 2.38 0 1 0 4.76 0 a2.38 2.38 0 1 0 -4.76 0zM596.12 731.5 a2.38 2.38 0 1 0 4.76 0 a2.38 2.38 0 1 0 -4.76 0zM444.12 788.5 a2.38 2.38 0 1 0 4.76 0 a2.38 2.38 0 1 0 -4.76 0zM748.12 750.5 a2.38 2.38 0 1 0 4.76 0 a2.38 2.38 0 1 0 -4.76 0zM786.12 826.5 a2.38 2.38 0 1 0 4.76 0 a2.38 2.38 0 1 0 -4.76 0zM634.12 769.5 a2.38 2.38 0 1 0 4.76 0 a2.38 2.38 0 1 0 -4.76 0z" fill="black"></path><path d="M957.12 199.5 a2.38 2.38 0 1 0 4.76 0 a2.38 2.38 0 1 0 -4.76 0zM881.12 237.5 a2.38 2.38 0 1 0 4.76 0 a2.38 2.38 0 1 0 -4.76 0zM976.12 218.5 a2.38 2.38 0 1 0 4.76 0 a2.38 2.38 0 1 0 -4.76 0zM425.12 256.5 a2.38 2.38 0 1 0 4.76 0 a2.38 2.38 0 1 0 -4.76 0zM558.12 237.5 a2.38 2.38 0 1 0 4.76 0 a2.38 2.38 0 1 0 -4.76 0zM482.12 237.5 a2.38 2.38 0 1 0 4.76 0 a2.38 2.38 0 1 0 -4.76 0zM938.12 199.5 a2.38 2.38 0 1 0 4.76 0 a2.38 2.38 0 1 0 -4.76 0zM767.12 256.5 a2.38 2.38 0 1 0 4.76 0 a2.38 2.38 0 1 0 -4.76 0zM748.12 237.5 a2.38 2.38 0 1 0 4.76 0 a2.38 2.38 0 1 0 -4.76 0zM919.12 199.5 a2.38 2.38 0 1 0 4.76 0 a2.38 2.38 0 1 0 -4.76 0zM216.12 370.5 a2.38 2.38 0 1 0 4.76 0 a2.38 2.38 0 1 0 -4.76 0zM406.12 256.5 a2.38 2.38 0 1 0 4.76 0 a2.38 2.38 0 1 0 -4.76 0z" fill="black"></path><path d="M1052.12 883.5 a2.38 2.38 0 1 0 4.76 0 a2.38 2.38 0 1 0 -4.76 0zM976.12 883.5 a2.38 2.38 0 1 0 4.76 0 a2.38 2.38 0 1 0 -4.76 0zM1090.12 883.5 a2.38 2.38 0 1 0 4.76 0 a2.38 2.38 0 1 0 -4.76 0zM767.12 826.5 a2.38 2.38 0 1 0 4.76 0 a2.38 2.38 0 1 0 -4.76 0zM919.12 883.5 a2.38 2.38 0 1 0 4.76 0 a2.38 2.38 0 1 0 -4.76 0zM862.12 883.5 a2.38 2.38 0 1 0 4.76 0 a2.38 2.38 0 1 0 -4.76 0zM748.12 864.5 a2.38 2.38 0 1 0 4.76 0 a2.38 2.38 0 1 0 -4.76 0zM653.12 864.5 a2.38 2.38 0 1 0 4.76 0 a2.38 2.38 0 1 0 -4.76 0zM406.12 788.5 a2.38 2.38 0 1 0 4.76 0 a2.38 2.38 0 1 0 -4.76 0zM691.12 826.5 a2.38 2.38 0 1 0 4.76 0 a2.38 2.38 0 1 0 -4.76 0zM596.12 807.5 a2.38 2.38 0 1 0 4.76 0 a2.38 2.38 0 1 0 -4.76 0zM558.12 788.5 a2.38 2.38 0 1 0 4.76 0 a2.38 2.38 0 1 0 -4.76 0zM729.12 864.5 a2.38 2.38 0 1 0 4.76 0 a2.38 2.38 0 1 0 -4.76 0zM311.12 788.5 a2.38 2.38 0 1 0 4.76 0 a2.38 2.38 0 1 0 -4.76 0zM1014.12 883.5 a2.38 2.38 0 1 0 4.76 0 a2.38 2.38 0 1 0 -4.76 0z" fill="black"></path><path d="M273.12 332.5 a2.38 2.38 0 1 0 4.76 0 a2.38 2.38 0 1 0 -4.76 0zM159.12 332.5 a2.38 2.38 0 1 0 4.76 0 a2.38 2.38 0 1 0 -4.76 0zM197.12 332.5 a2.38 2.38 0 1 0 4.76 0 a2.38 2.38 0 1 0 -4.76 0zM83.12 351.5 a2.38 2.38 0 1 0 4.76 0 a2.38 2.38 0 1 0 -4.76 0z" fill="black"></path><path d="M558.12 845.5 a2.38 2.38 0 1 0 4.76 0 a2.38 2.38 0 1 0 -4.76 0zM292.12 826.5 a2.38 2.38 0 1 0 4.76 0 a2.38 2.38 0 1 0 -4.76 0zM273.12 826.5 a2.38 2.38 0 1 0 4.76 0 a2.38 2.38 0 1 0 -4.76 0zM596.12 845.5 a2.38 2.38 0 1 0 4.76 0 a2.38 2.38 0 1 0 -4.76 0zM254.12 826.5 a2.38 2.38 0 1 0 4.76 0 a2.38 2.38 0 1 0 -4.76 0z" fill="black"></path><path d="M102.12 332.5 a2.38 2.38 0 1 0 4.76 0 a2.38 2.38 0 1 0 -4.76 0z" fill="black"></path><path d="M349.12 845.5 a2.38 2.38 0 1 0 4.76 0 a2.38 2.38 0 1 0 -4.76 0z" fill="black"></path><path d="M368.12 256.5 a2.38 2.38 0 1 0 4.76 0 a2.38 2.38 0 1 0 -4.76 0zM330.12 275.5 a2.38 2.38 0 1 0 4.76 0 a2.38 2.38 0 1 0 -4.76 0zM292.12 313.5 a2.38 2.38 0 1 0 4.76 0 a2.38 2.38 0 1 0 -4.76 0z" fill="black"></path><path d="M767.12 864.5 a2.38 2.38 0 1 0 4.76 0 a2.38 2.38 0 1 0 -4.76 0zM729.12 902.5 a2.38 2.38 0 1 0 4.76 0 a2.38 2.38 0 1 0 -4.76 0zM520.12 864.5 a2.38 2.38 0 1 0 4.76 0 a2.38 2.38 0 1 0 -4.76 0zM767.12 883.5 a2.38 2.38 0 1 0 4.76 0 a2.38 2.38 0 1 0 -4.76 0zM634.12 864.5 a2.38 2.38 0 1 0 4.76 0 a2.38 2.38 0 1 0 -4.76 0zM615.12 864.5 a2.38 2.38 0 1 0 4.76 0 a2.38 2.38 0 1 0 -4.76 0z" fill="black"></path><path d="M292.12 275.5 a2.38 2.38 0 1 0 4.76 0 a2.38 2.38 0 1 0 -4.76 0zM45.12 294.5 a2.38 2.38 0 1 0 4.76 0 a2.38 2.38 0 1 0 -4.76 0zM254.12 275.5 a2.38 2.38 0 1 0 4.76 0 a2.38 2.38 0 1 0 -4.76 0zM216.12 275.5 a2.38 2.38 0 1 0 4.76 0 a2.38 2.38 0 1 0 -4.76 0z" fill="black"></path><path d="M976.12 902.5 a2.38 2.38 0 1 0 4.76 0 a2.38 2.38 0 1 0 -4.76 0zM862.12 921.5 a2.38 2.38 0 1 0 4.76 0 a2.38 2.38 0 1 0 -4.76 0zM691.12 902.5 a2.38 2.38 0 1 0 4.76 0 a2.38 2.38 0 1 0 -4.76 0zM824.12 883.5 a2.38 2.38 0 1 0 4.76 0 a2.38 2.38 0 1 0 -4.76 0zM824.12 921.5 a2.38 2.38 0 1 0 4.76 0 a2.38 2.38 0 1 0 -4.76 0zM558.12 921.5 a2.38 2.38 0 1 0 4.76 0 a2.38 2.38 0 1 0 -4.76 0zM425.12 902.5 a2.38 2.38 0 1 0 4.76 0 a2.38 2.38 0 1 0 -4.76 0zM748.12 921.5 a2.38 2.38 0 1 0 4.76 0 a2.38 2.38 0 1 0 -4.76 0zM938.12 921.5 a2.38 2.38 0 1 0 4.76 0 a2.38 2.38 0 1 0 -4.76 0zM919.12 921.5 a2.38 2.38 0 1 0 4.76 0 a2.38 2.38 0 1 0 -4.76 0zM1090.12 902.5 a2.38 2.38 0 1 0 4.76 0 a2.38 2.38 0 1 0 -4.76 0zM558.12 902.5 a2.38 2.38 0 1 0 4.76 0 a2.38 2.38 0 1 0 -4.76 0zM957.12 940.5 a2.38 2.38 0 1 0 4.76 0 a2.38 2.38 0 1 0 -4.76 0zM805.12 883.5 a2.38 2.38 0 1 0 4.76 0 a2.38 2.38 0 1 0 -4.76 0z" fill="black"></path><path d="M824.12 218.5 a2.38 2.38 0 1 0 4.76 0 a2.38 2.38 0 1 0 -4.76 0zM349.12 237.5 a2.38 2.38 0 1 0 4.76 0 a2.38 2.38 0 1 0 -4.76 0zM691.12 218.5 a2.38 2.38 0 1 0 4.76 0 a2.38 2.38 0 1 0 -4.76 0zM197.12 275.5 a2.38 2.38 0 1 0 4.76 0 a2.38 2.38 0 1 0 -4.76 0zM463.12 237.5 a2.38 2.38 0 1 0 4.76 0 a2.38 2.38 0 1 0 -4.76 0zM729.12 237.5 a2.38 2.38 0 1 0 4.76 0 a2.38 2.38 0 1 0 -4.76 0zM292.12 237.5 a2.38 2.38 0 1 0 4.76 0 a2.38 2.38 0 1 0 -4.76 0z" fill="black"></path><path d="M919.12 978.5 a2.38 2.38 0 1 0 4.76 0 a2.38 2.38 0 1 0 -4.76 0zM501.12 959.5 a2.38 2.38 0 1 0 4.76 0 a2.38 2.38 0 1 0 -4.76 0zM520.12 921.5 a2.38 2.38 0 1 0 4.76 0 a2.38 2.38 0 1 0 -4.76 0zM919.12 997.5 a2.38 2.38 0 1 0 4.76 0 a2.38 2.38 0 1 0 -4.76 0zM748.12 997.5 a2.38 2.38 0 1 0 4.76 0 a2.38 2.38 0 1 0 -4.76 0zM596.12 959.5 a2.38 2.38 0 1 0 4.76 0 a2.38 2.38 0 1 0 -4.76 0zM824.12 959.5 a2.38 2.38 0 1 0 4.76 0 a2.38 2.38 0 1 0 -4.76 0zM254.12 921.5 a2.38 2.38 0 1 0 4.76 0 a2.38 2.38 0 1 0 -4.76 0zM900.12 959.5 a2.38 2.38 0 1 0 4.76 0 a2.38 2.38 0 1 0 -4.76 0zM463.12 978.5 a2.38 2.38 0 1 0 4.76 0 a2.38 2.38 0 1 0 -4.76 0zM748.12 959.5 a2.38 2.38 0 1 0 4.76 0 a2.38 2.38 0 1 0 -4.76 0zM387.12 902.5 a2.38 2.38 0 1 0 4.76 0 a2.38 2.38 0 1 0 -4.76 0zM387.12 940.5 a2.38 2.38 0 1 0 4.76 0 a2.38 2.38 0 1 0 -4.76 0z" fill="black"></path><path d="M976.12 180.5 a2.38 2.38 0 1 0 4.76 0 a2.38 2.38 0 1 0 -4.76 0zM919.12 161.5 a2.38 2.38 0 1 0 4.76 0 a2.38 2.38 0 1 0 -4.76 0zM862.12 161.5 a2.38 2.38 0 1 0 4.76 0 a2.38 2.38 0 1 0 -4.76 0zM425.12 199.5 a2.38 2.38 0 1 0 4.76 0 a2.38 2.38 0 1 0 -4.76 0zM729.12 142.5 a2.38 2.38 0 1 0 4.76 0 a2.38 2.38 0 1 0 -4.76 0zM387.12 199.5 a2.38 2.38 0 1 0 4.76 0 a2.38 2.38 0 1 0 -4.76 0zM615.12 180.5 a2.38 2.38 0 1 0 4.76 0 a2.38 2.38 0 1 0 -4.76 0zM482.12 180.5 a2.38 2.38 0 1 0 4.76 0 a2.38 2.38 0 1 0 -4.76 0zM596.12 199.5 a2.38 2.38 0 1 0 4.76 0 a2.38 2.38 0 1 0 -4.76 0zM330.12 161.5 a2.38 2.38 0 1 0 4.76 0 a2.38 2.38 0 1 0 -4.76 0zM45.12 237.5 a2.38 2.38 0 1 0 4.76 0 a2.38 2.38 0 1 0 -4.76 0zM900.12 199.5 a2.38 2.38 0 1 0 4.76 0 a2.38 2.38 0 1 0 -4.76 0zM577.12 199.5 a2.38 2.38 0 1 0 4.76 0 a2.38 2.38 0 1 0 -4.76 0zM710.12 123.5 a2.38 2.38 0 1 0 4.76 0 a2.38 2.38 0 1 0 -4.76 0z" fill="black"></path></mask></defs></svg>